<?xml version="1.0" encoding="utf-8"?>
<!-- Generator: Adobe Illustrator 17.1.0, SVG Export Plug-In . SVG Version: 6.00 Build 0)  -->
<!DOCTYPE svg PUBLIC "-//W3C//DTD SVG 1.1//EN" "http://www.w3.org/Graphics/SVG/1.1/DTD/svg11.dtd">
<svg version="1.1" id="Layer_1" xmlns="http://www.w3.org/2000/svg" xmlns:xlink="http://www.w3.org/1999/xlink" x="0px" y="0px"
	 viewBox="0 0 800 800" enable-background="new 0 0 800 800" xml:space="preserve">
<g id="Captions">
</g>
<g id="Your_Icon">
	<polygon fill="#AD5309" points="322.8,597 322.4,596.6 322.2,594.7 321.5,594 321.1,592.6 320.6,592 320.2,592.3 320.2,592 
		320.6,591.1 320.6,590 319.2,588.6 318.6,588.6 317.8,587.8 317.4,587.8 316.7,587.1 315.2,587.6 315.2,588.6 314.1,588.6 
		312.3,590.7 312.3,591.5 311.9,591.8 310.9,591.6 309.9,592.7 306.9,592.7 305.8,591.6 304.8,591.6 305,593.6 304.6,594 
		304.6,595.3 306.6,597.3 306.6,598.1 307.1,599.1 307.7,599.7 307.7,603.7 307.2,604.1 307.3,606.6 308.3,606.6 308.5,608.1 
		307.3,608.8 307.6,610.8 307.2,611.3 306.9,615.6 307.7,616.3 307.7,616.9 308.8,618 308.8,618.8 309.9,619.6 313.2,619.6 
		313.2,618.5 314,617.9 314.1,615.7 315.2,614.8 316.3,614.8 317.2,616 319.9,616.9 321.6,603.5 321,602.3 321,600.6 321.8,599.9 
		322.4,598.3 323.1,597.8 	"/>
	<polygon fill="#AD5309" points="380.6,626.7 380.6,626.3 379.8,626.4 379.3,626.4 379,626.8 378,627.1 377.6,627 376.9,627.5 
		376.9,628.2 372.9,627.8 371,629.8 364.2,629.9 363,630.8 361.5,630.8 360.4,629.9 359.8,629.9 357.8,628.6 357.1,628.6 
		356.6,629.1 355.1,629.1 355.1,629.6 354.3,630.4 353.1,630.4 351.9,629.4 350.5,629.4 349.5,630.3 349.5,633.9 348.8,634.6 
		350.4,636.1 354,636.1 354.7,636.7 356.7,637.5 357.8,637.5 359.1,639.5 360.4,639.5 364.2,641.7 367.9,641.7 369.4,642.2 
		369.4,643.3 373.6,646.2 377.4,646.5 377.8,645.8 377.4,644.1 379.7,641.4 379,640.7 379,640.3 378.4,639.9 378.9,639.4 378,638.5 
		377.3,638.5 377.3,637.9 376.9,637.1 376.9,636.1 377.7,634.9 377.7,634.2 378.2,633.1 378.4,631.9 380.4,628.3 380.1,627.6 
		380.8,627.1 	"/>
	<polygon fill="#AD5309" points="317.9,566.2 317.4,567.7 317,567.7 316.3,566.9 315.5,566.9 314,568.2 312.5,568.2 312,568.8 
		311.5,568.8 310.8,569 310.5,571.4 309.6,572.4 310.5,573.3 309.7,574.1 310.1,575.3 311.7,576.8 310.1,577.5 311.3,578.5 
		311.3,579.3 310.5,580.1 310.8,581.1 312.5,581.1 312.5,581.6 312.1,582.1 312.1,582.7 313.6,584 314.7,584 314.8,584.4 
		315.2,584.8 316.2,585.1 318,583.3 318.4,577.5 319.9,576.4 319.8,569.4 319.2,568.6 319.1,563.5 318.2,562.7 317.8,563.1 	"/>
	<polygon fill="#AD5309" points="119.6,443.2 120.4,443.5 121.1,444.6 129.1,442.8 129.8,441.9 131.8,441.5 131.8,440.8 
		130.8,440.2 131.4,438.7 132.3,438.4 133.1,439.1 133.5,440.2 134.4,440.7 135,440.6 137.8,437.8 139.4,437.5 140.2,436.4 
		140.2,436 142.5,435.6 143.7,436 145.4,435.9 146.2,435.4 146.6,435.8 147.3,434 148.6,434.8 149.2,435.6 149.8,436.2 151.7,435.6 
		152.2,434.7 152.2,432.5 153.3,431.5 155.3,425.6 157.1,423.6 156.7,412.6 154.4,406.7 155.7,405.2 156.5,405.1 157.1,405.5 
		158.8,405 159.3,403 162,402.4 164,400.2 163.3,395.5 162.4,394.9 160.3,394.9 160.1,394.1 160.7,393.6 161.5,393.6 161.9,392.8 
		161.2,392 161.2,391.2 159.3,389.5 158.8,386.6 156.5,385 150.9,386.2 150.8,385.6 147.4,382.6 146.6,383.8 145.1,384.2 
		144.5,384.1 141.5,385 139.9,384.8 139.1,384.9 137.1,386.5 136.2,389.3 136.3,390.4 135.9,390.9 133.8,391.2 132.8,391.9 
		133,392.9 133.5,393.3 136.8,393.9 137.8,394.5 136.7,396 134.6,396.5 133.4,397.6 133.5,399.6 133.2,400.6 132.7,399.4 
		131.8,398.7 129.9,398.6 128.7,399 127.9,399.9 127.2,399.4 127.1,398.2 125.3,397.8 124.4,397.1 119.7,397.3 119.5,398.3 
		120,400.8 118.2,402.2 122.9,405.4 119.3,406.6 119.5,408.6 118.1,408.7 117.4,409.4 116.5,411.4 121.3,413.1 120.9,414.5 
		121.6,415 124.4,415.4 126.7,415 127.6,415.5 127.7,416.2 126.7,417.3 125.3,416.9 124.3,417.6 122.5,419.7 122.7,420.4 
		119.7,423.6 119.5,424.8 120.9,425.2 121.5,425.9 119.3,426.3 117.6,428.5 117.6,429.9 116.5,431.6 114.6,430.1 111.8,430.5 
		110.8,431.5 112.1,432.5 116.6,432.7 116.2,434 112.5,434.7 110.9,436.7 112.4,437.6 112.9,438.7 113.3,438.2 116.9,437.6 
		117.4,438 116,439.2 114.5,439.5 113.2,441.2 114.5,441.6 117.4,441.1 118.4,440 119.2,439.9 119.3,440.4 118.5,441.5 117.4,441.9 
		116.2,443.5 117,444.2 	"/>
	<polygon fill="#AD5309" points="161.5,360 160.9,360.7 161.9,361.4 162.1,362.4 161.1,362.4 160.3,361.8 159.2,363.1 159.3,363.9 
		159.9,364.7 160,365.6 159.7,366.6 158.8,367.2 158.5,367.6 159.3,368 164.1,367.4 164.1,364.7 164.9,364.6 167.4,361.8 
		167.6,365.4 166.4,366 164.5,369.9 164.7,371 164,371.9 164.1,374.6 164.4,375.3 164.4,377 163.2,379.2 163.1,380.4 161.9,382.8 
		161.7,384.2 163.6,384.1 164.3,383.2 164.5,382 164.4,381 165.1,379.8 164.8,378.6 166.3,376.6 166.2,375.8 165.5,374.3 
		166.2,373.3 167.1,373.8 167.4,374.7 168,375.3 168.2,375.8 169,376.9 171.4,371.8 171.2,372.9 171.5,373.5 173,374.6 171.9,374.7 
		170.8,376.1 170.6,377.3 170.7,378.1 172.4,380.6 172.6,381.7 172.4,382.4 172.2,382.9 171.4,383.4 167.5,390.5 167.8,393.2 
		169.2,392.8 169.5,392.5 171.1,392.7 173.9,395.1 174.8,395.1 174.7,394 174.4,393.9 174.3,392.4 177.3,393.7 177.8,394.5 
		178.5,394.4 180.3,393.1 181,392.9 182.1,392.4 182.5,391.2 183.4,390.9 184.6,391.2 185,392 183.7,394 183.7,394.7 183.3,395.6 
		181.5,397.2 181.7,398.3 183,399.9 183.5,403 184.8,404 185.6,405.4 186.2,405.4 186.8,404.3 187.7,404.6 189.6,405.9 188.8,407.1 
		188.6,407.8 188,408.2 187,409.4 186.6,410.6 187.4,412.1 187.3,412.5 187,413.5 186,415.4 187,417.3 188.1,418.1 187.4,418.2 
		185.4,417.6 185.8,419.2 185.3,419.3 184.2,418.5 175.8,419.8 173.6,422 173.4,422.9 169.4,426.5 170.3,426.8 172.3,426.1 
		173.1,425.2 174.4,425 175.3,425.6 175.8,433.7 174.7,435.1 172.2,436.2 171.5,437.1 170,437.2 166.8,439.4 164.1,439.8 
		163.5,440.7 163.6,441.6 164.3,442.2 164.4,443 163.9,443.8 163.9,444.2 164.5,444.7 164,445.4 166.4,445.7 168.7,445.1 
		169.1,444.4 170.4,444.3 171.1,443.5 171.6,443.9 173,445.7 174.2,445.5 174.3,446.2 172.7,446.3 172.2,447.1 173.1,447.8 
		174.7,447.5 175.7,446.5 176.9,446.2 177.9,447 177.9,447.8 178.3,448.2 178.5,448.9 180.2,450.2 181.9,450.7 184.2,450.5 
		184.6,449.9 184.6,449 185.3,448.2 187.2,447.8 189.6,446.7 190.2,445.8 192.1,444.7 185.4,452.6 185.2,453.3 184.9,453.7 
		181.8,454 180.5,452.6 179.7,452.9 178.3,452.6 173.8,453.3 172.6,456.1 171.4,456.8 170.4,456.1 169.4,458 169.5,459.3 166.2,463 
		164.9,463.2 161.5,467.6 158.9,469.2 157.7,469.5 156.4,470 156.1,471.5 158.1,471.5 158.8,470.5 159.7,470.4 161.1,471.2 
		161.2,472.4 160.8,472.5 161.6,473.2 162.4,473.1 163.1,471.9 162.9,471.2 164.8,469.5 166,469.2 165.9,468.7 166.4,467.7 
		172.4,466.8 172.8,466 173.6,466.7 174,467.9 174.6,467.7 175.1,468.8 176.6,469.9 177.8,470.1 177.8,469.3 179,468.4 179.8,467.5 
		179.9,466.5 179.8,465.9 180.2,463.9 184.2,461.8 188.4,462.1 190.4,463.6 196.9,463 196.5,461.7 202.3,460.8 202.3,460.1 
		202.7,459.4 207,460.4 207.8,461 222.4,460.5 225.2,458.6 226.2,458.6 226.9,458 226.8,457.2 228.8,456 230.2,455.6 231.6,454.8 
		231.3,452.9 231.7,451 230.9,450.6 228.8,450.5 228.5,450.9 223.2,450.3 222.4,449.8 222.1,449.3 222.2,449 226.1,448.1 
		226.5,447.4 226.6,446.2 226,445.7 224.5,445.3 225.2,445.3 225.8,444.2 227,444.2 227.8,444.3 228.2,443.8 229.7,443.6 
		230.1,442.6 229.2,442.3 228.1,441.5 230.9,440.7 232.8,439 234.7,432.7 234.1,431.2 234.4,429.6 232,426.9 224.5,424.6 
		221.8,425.4 221.1,427.1 220.3,427.9 218.9,427.9 218.7,427.5 218.7,426.5 217.9,425.2 217.9,424.5 220.1,423 218.9,417.8 
		217.8,416.5 216.2,415.5 214.9,405.5 212.7,403.6 211.8,401.8 211.6,401 211.8,400.2 209.5,398.4 205.2,397.1 204.6,396.5 
		202.8,389.6 201.7,388.8 200.9,385.7 201.3,384 200.9,382.2 192.4,374.1 188.1,375 185,374.6 185.4,374.1 187.3,373.7 187.4,372.6 
		189.6,371.3 190.9,371 191.6,370.3 192.1,368.4 187.6,367.9 191.2,366 192.1,365.9 195.6,361.2 195.9,359.6 197.1,357.9 
		198.1,353.5 199.6,351.1 199.9,350.2 200.5,349.3 197.5,345.8 196.5,346 195.3,346.6 190.5,346.4 189.6,346.8 185.6,346.2 
		183.4,347.2 182.6,348 181,348.4 180.5,347.8 180.9,346.4 180.7,346 181.9,344.4 178.7,342.9 179.4,342.9 182.6,340.2 183.9,339.8 
		188.4,335.3 189,333.7 188.6,332.7 189.3,331.4 188.6,330.4 177.9,332.5 176.7,331.5 175.1,331.8 174.4,331.4 173.5,331.1 
		172.6,330.4 172.2,331.1 171.5,334.6 171,335.5 169.9,335.9 169.1,338.3 168,339.8 170.2,341.7 168.7,342.4 166.4,342.5 
		165.9,342.2 164.5,342.6 164.8,345 164.3,345.7 165.1,346.9 164.9,347.7 164.1,348.4 163.9,349.7 164.7,350.7 164.8,351.3 
		164.1,352.5 164.9,354.9 163.5,356.5 163.6,359.2 162.9,360.2 	"/>
	<polygon fill="#AD5309" points="495.5,660.3 493.8,661.8 493,660.8 493.2,659.7 483.1,658.5 481.5,659.9 475.2,660.1 473.5,658 
		470.4,658.5 469.1,657.1 469,658.7 467.5,658.7 467.1,662.3 480.6,663.8 483,666.7 485.1,665.1 490,665 492.1,663.2 497.6,663.2 
		499.6,661.6 499.7,660.7 	"/>
	<path fill="#AD5309" d="M492.4,587.2H492l1.6-0.3L492.4,587.2L492.4,587.2z M481,585.3l3.2,1.3L481,585.3L481,585.3z M459.3,587.4
		v-0.7v1.6V587.4L459.3,587.4z M451.7,588.6l2.4,0.5L451.7,588.6L451.7,588.6z M310.5,405.6l2.1,0.3L310.5,405.6L310.5,405.6z
		 M495.3,357.5l-4-2.4L495.3,357.5L495.3,357.5z M389.2,513.9l-0.5-0.5v-0.7v0.7L389.2,513.9L389.2,513.9z M398.7,501.6l-0.7,0.8
		L398.7,501.6L398.7,501.6z M427.6,522.7h-0.8h1.7H427.6L427.6,522.7z M642.8,477.4l-2.5-0.4l-6.4-4l-1.9,0.8l-5.8-2.9l-4.5,0.9
		l-7.2-6.8l-1.1,0.9l-9,1.3l-2.1-0.8l-1.7-1.5l-0.8-0.1l-2.4,0.7l-2.7-1.2l-0.7-1.1l-0.3-3.5l-1.6-3.7l-2.4-1.7l-7.4-0.8l-0.4-1.3
		V451l-0.8-0.8l-0.7-2.4l1.6-1.6l0.4-1.2l-2.7-3.1l-0.7-1.7l-1.7-1.6l-8-0.5l-2.3,1.6h-1.6l-0.4-0.4l-2.1-0.7l-2.1,3.1l-3.2,0.8
		l-1.6-0.7h-1.5l0.4-1.2v-1.3l-1.2-2.5l-0.7-5.1l-2-3.1l0.9-2l8.7,0.3l1.9-0.7l2-2V423l-2.7-4.7l-1.7-0.9l-4-0.4l-0.4-1.1l0.8-1.7
		l-0.1-1.6H555l-2.7-1.3l-3.2-4.7l-0.4-1.7l-2.7-2.4l-0.5-2.7l1.9-2.8l-1.7-1.9v-3.9l-2-2.7l-2.8-1.9l-6.4,0.1l-1.1,1.1l-3.1,0.4
		l-0.4-0.4l-0.4-3.1l-0.5-0.8l-5.4,0.7l-1.3-1.3h-2.8l-2-1.3l0.1-3.9l-0.4-1.1l-0.7-0.7l-0.4-1.2l-1.9-2l-0.3-1.3l-0.7-0.3l-1.3,0.1
		v-0.9l1.1-1.2l0.3-5.4l-3.5-3.6l-3.9-0.1l3.9,0.1v-2.8l2.5-2.5l0.3-2l-2.3-2.3l0.5-7.5l-0.8-1.7v-1.3l0.8-1.2h0.7l1.2-0.9l0.5-1.2
		l0.9-0.9l-0.4-1.5l2-1.6h1.9l-0.3-1.6l-1.5-1.6l-0.5,0.5l-2.7,1.1l-7-0.1l-2.9-1.3l-3.2-0.1l-0.8-0.4l-5.8-0.5l-1.3,0.5h-1.3
		l-0.9-0.7l-1.3,1.7h-6.3l-0.9,0.9h-3.6l-1.5,0.4l-0.7,1.3l-6.7,2.5l-0.7,0.5v1.9l1.1,1.1l-0.7,0.7l0.3,6l1.6,2.5l1.5,0.5h1.7
		l0.8,0.8l3.2-1.6l1.6,1.9v1.1l-1.7,2.5v1.7l0.9,0.3H477l-0.1,3.7l1.1,1.7l-0.1,2.7l-1.9,2.4l-5,2.8l-3.6-0.4l-10.4-11.1l-0.4,0.4
		h-1.3l-1.3,0.7l-1.5,0.1l-1.1,1.1l-2.4,0.3l-3.7,4.8v2.4l-0.8,1.7l-3.2,3.1l-0.8,2.4l1.7,13.8l0.7,0.7l0.5,2.3l-0.3,1.1l0.5,0.5
		l0.1,1.6l-1.6,0.3l-1.3,1.3v2.4l-0.4,0.9l-2,0.7l-6.8,0.1l-0.3,0.9l1.1,3.3l-1.6,0.7h-1.5l-3.5,3.5l-7.9-0.4l-1.6-0.7l-1.5-1.5
		l-0.8-1.9v-1.1l-1.1-1.1l-7.6-0.1l-15.9,6.7l-0.8,0.7h-1.3l-0.7,0.7l-8.4,1.7l-0.7,0.7l-3.6,1.5l-0.7,0.7h-1.3l-2.3,2.5h-0.9
		l-0.9-0.9l-0.8-1.7l-1.6-1.6h-3.9l-1.3-1.3h-2.5l-3.1-3.1l-4.4,0.8l-2.7,2.9l-1.1-0.4l-1.3,0.4l-0.8,0.7l-1.5-0.9l-1.6,1.5l0.1,0.1
		l-0.4,0.7l-1.9,1.3H338l-1.3,0.7h-1.5l-0.7,0.7v0.9h-1.2v1.2h-0.8l-0.7-0.7h-2l-1.1,0.9l-1.1-1.2l2.1-1.9l0.4-0.9v-0.9l-0.5-1.3
		l-1.2,1.1h-1.6l-0.8-0.7l-2-0.8H323l-0.4,0.3l-0.8-1.1h-2.3l-0.7-3.6l-0.4-0.3l-0.3-0.7v-0.7l-0.1-0.1v-0.7l0.1-0.1l0.7-0.1v0.3
		l-0.4,0.3l0.3,0.1v0.5l0.8,0.1l0.1,0.3l0.1,0.1l0.3-0.3l-0.1-0.4v-0.1V406h0.1l0.1,0.1l0.3-0.3v-0.4l0.3,0.3v0.3h0.7l0.1-0.1h0.1
		l0.1,0.1h-0.3l-0.3,0.3l0.3,0.3h0.1l0.1,0.1l0.4-0.1l0.1-0.1h0.1l0.7-0.3V406l-0.3-1.2l-2.4-1.9l-1.3-0.1l-0.3,0.3l0.1,0.1h0.3
		l-0.4,0.3l1.5,0.7l0.1,0.3l0.3,0.1l0.5,0.4l-0.4,0.3l-0.4-0.5l-0.4-0.1v0.4h-0.3v-0.5l-0.3-0.1v-0.1h-0.4l-0.3-0.3h-0.3l-0.4-0.4
		l0.1-0.1l-0.4-0.3v0.5h-0.4l-0.4,0.1h-0.4l0.4-0.4h0.4h0.1l0.1-0.1l-0.1-0.4v-0.5l-0.3-0.3h-0.3l0,0h0.4l0.3-0.3h-0.4l0.8-0.7
		l0.5,0.1l0.5-0.5l0.1-0.4h0.1l-0.1-0.3v-0.4l-0.4-0.3h-0.3l-0.1-0.1l0.3-0.4l-0.1-0.1l-0.3-2.1h0.3l0.3-0.3v-0.4l-0.3-0.3l-0.1,0.1
		h-1.1v-0.1l0.5-0.1v-0.1l0.3-0.1l0.7,0.3l0.3-0.3l0.7,0.7h0.3l0.5,0.7h-0.3l-0.3-0.3h-0.3v0.1l0.5,0.4h0.3l0,0l-0.1,0.1h0.1
		l0.1,0.1v0.1l-0.4,0.3l0.5,0.4l0.5,0.1v0.7l0.1,0.3v0.1l0.1,0.5v0.1l0.3,0.3l0.5,0.1v0.8l0.1,0.4v0.5h0.3v-0.5l-0.1-0.1l-0.1-0.4
		l0.1-0.1l0.4,0.3h0.4l0.4-0.1l0.1,0.1v0.3l0.3,0.3v0.5l-0.1,0.1h-0.4l-0.7,0.3h0.1l0.9,0.1v0.3h0.3v-0.1v-0.3l0.1-0.1l0.4,0.4h0.1
		h0.3l0.4,0.4h0.5l0.3,0.1h0.5l0.4,0.1h0.5l0.5-0.4h1.3l0.3-0.4v-0.4l0.4-0.9v-1.9l-0.1-0.4l0.1-0.1h0.4l-0.4-1.2l-0.9-1.1l-0.1-0.7
		l0.1-0.1h0.3v-0.1l-0.7-0.5v-0.4l-0.7-1.1v0.1v0.4l-0.1,0.1l0.3,0.1v0.5h-0.3l-0.1,0.1l0.4,0.3l-0.1,0.1v0.3h-0.5l-0.3,0.1h-0.3
		l-0.1,0.4h-0.4l-0.3-0.3v-0.4h0.4l0.3-0.3h-0.1v-0.1v-0.3l0.4-0.3h-0.4l-0.3-0.3h-0.3l-0.1-0.1l-0.1-0.4l-0.3-0.1h-0.4l-0.7-0.4
		v0.1v0.4H325v-0.3h-0.3l-3.1,1.5l-0.1,0.3h-0.7l-0.4-0.5l-0.1,0.1l-0.7-0.1v-0.4l0.1-0.3l0.8-0.4v-0.1l-0.1-0.1l-0.5-0.1h-0.7
		l-0.3-0.4l-0.9-0.7h-0.1l-0.1-0.3h0.9l1.7,0.7l1.9-0.7v-0.3l0.5-0.4v-0.1l-0.4-0.1l0.3-0.7v-0.3V390h-0.8l-0.5-0.3h-0.3v-0.3
		l1.3,0.1l0.1-0.1H322v-0.1l0.3-0.3h0.9l0.3,0.1v0.3l0.1,0.3l0.4,0.1v-0.1l0.1-0.1l-0.4-0.4l0.5-0.5l0.3-0.5v-0.4V387l0.3-0.5v-0.3
		h-0.4l0.5-0.4l-0.5-1.5l0.1-0.8l0.8-1.1l0.3-0.7h0.4l0.7,0.3v0.1l-0.3,0.4v0.4h-0.3v-0.1l-0.4,0.1v0.7l0.4,0.4h0.1l0.1-0.3l0.1-0.1
		h0.9l0.1-0.1l0.1-0.4l0.3-0.3h0.7l0.1,0.1l-0.3,0.1v0.3l-0.3,0.1l0.5,0.5h0.3h0.1l0.1-0.3v-0.4l0.1-0.7l1.1-1.6l0.4-0.3v-1.1
		l0.7-0.8l-1.1-0.8l-0.1-0.4l-0.5-0.3l-0.1-0.1l-1.7,0.3l-0.3,0.3h-0.9l-1.2-0.5h-0.3l-0.3-0.4v-0.3l-0.1-0.1l-0.3,0.3l-0.4,0.1
		l-0.1,0.1v0.1l-0.1,0.9l-0.1-0.5l0.1-0.7l1.1-1.2v-0.3l-0.8-0.7H324l-0.4-0.1h0.8l0.1,0.1l0.3-0.4l-0.1-0.5l-0.1-0.1l-0.1-0.4
		l-0.3-0.3l0.3-3.5l0.4-0.1l1.1-3.3l0.7-0.5l-0.1-3.7l0.3-0.4l-1.2-1.1l-0.1-1.2l0.3-1.1l0.7-0.7l0.4-0.1l0.5-0.5l-0.1-0.3l-1.1,0.4
		l-1.7,1.7l-0.7,0.3l-0.3,0.3l-2.7,0.3l-3.9,6.4l-1.3,1.1l-2,0.5l-1.7-0.4l-1.2,0.4l-0.3,0.4l-2,0.3l-0.5-0.1l-0.7,0.5l-0.3,0.3v0.3
		l-2.8,4.3v1.2l0.3,0.3h0.1l-0.1-1.1l0.7,0.5v0.8l1.3,0.9l0.1,0.3l0.4,0.3l0.3,0.5l0.4-0.1l0.3-0.1v-0.5l-0.1-0.1l-0.1-0.4v-0.3
		h-0.1l-0.4,0.3h-0.1l0.4-0.4l-0.4-0.3v-0.8l-0.1-0.3l0.1-0.1v-0.4l0.1-0.1h0.1l0.1-0.3l0.3-0.3l0.4-0.1l0.1-0.3v-0.1l0.1-0.4
		l-0.3-0.1l0.7-0.8h0.9l0.4-0.7v-0.3l0.3,0.3l0.3-0.3v-0.4l0.3,0.1l0.1,0.3h0.3l0.3-0.3h1.1l0.5-0.4l-0.1-0.3l-0.4-0.4l-0.1-0.5
		l0.3,0.4l0.5,0.3l0.3,0.4l0.3,0.1v0.3l0.7,0.4l0.4,0.1l0.3-0.4l1.2-0.5h0.1l0.4-0.3h0.4v0.3l0.7-0.3l0.1-0.1h0.9l0.9-0.4l0.1-0.1
		h0.3l0.4,0.1l0.7,0.5h-0.7l-0.4,0.1l-0.3,0.1h-1.5l-0.3,0.3l-0.1,0.5l-0.3,0.1l-0.1,0.1v0.3l-0.3,0.3v0.4l-0.4-0.4v-0.1l0.3-0.3
		v-0.3l-1.1-0.3l-1.6,0.3l-0.4,0.7v0.1l-0.5,0.4l-0.1,0.7l0.5,0.4v0.4l-0.3,0.1v0.5l0.1,0.4h0.1l0.4,0.3v0.3v0.4l-0.5,0.7l-0.1,0.3
		v0.3l0.3-0.4l0.4-0.3h0.5l0.1,0.1v1.1l-0.3,0.5v0.3l0.4,0.1h0.5v0.3h-0.3l-0.4,0.1h-0.1l-0.1-0.1l-0.1-0.1v-0.8l0.1-0.4l-0.3-0.3
		h-0.1l-0.3,0.3h-0.7l-0.5,0.5l-0.1,0.4h-0.3V377l-0.3-0.1l0.3-0.5v-0.1l0.4-0.3l0.1-0.4v-0.4l0.3-0.3l-0.3-1.1l-0.1-0.1v-0.3
		l-0.3-0.3l-0.5,0.1l-0.5-0.1l-0.9,1.1l-0.1,0.4l0.5,0.1l0.1,0.1l-1.1,0.4l-0.5,0.9l-0.4,0.1h-0.1l0.1,0.7l0.1,0.3l0.3,0.1l0.1,0.9
		l-0.3,0.3l-1.1-0.3l0.4,0.1h-0.3l-0.3-0.3v-0.4l-0.3-0.3v-0.1v-0.3h-0.3l-0.1,0.3h-0.3l-0.9-0.4h-0.9l-0.1,0.3h-0.1v-0.4l-0.5-0.4
		l0.1-0.1l-0.4-0.1v-0.3l0.1-0.1V375l-0.5,0.8v0.7l-0.3,0.5v2.9l0.3,0.1v-0.4l0.1-0.3l0.7,0.5h-0.4l-0.1,0.1l1.3,1.2v0.1l-0.4,0.4
		v-0.1v-0.3h-0.5l-0.3-0.3l-0.4-0.3v5.8l0.3,0.3l0.1-0.1l-0.3-1.7l1.6,0.9l0.4,0.4v0.7l0.1,0.4l0.4,0.4v0.4l-0.1,0.3l-1.1,1.1
		l-0.5,0.3h-0.3v-0.5l-0.3-0.1l-0.3-1.7l0.1,4.7l-0.1,0.4l-0.4,0.5v1.1l-0.4,0.4l0.4,0.3h0.4l1.6,1.3l0.1-0.3l-0.3-0.5l-0.9-0.7
		l0.4-0.4h0.7l-0.1,0.1l0.3,0.3v0.4l1.9,1.3h0.1l0.4,0.4h0.4l0.4,0.7l0.3,2.7l0.4,0.8l-0.4,3.5l0.4,0.4v2.5l1.3,1.2l0.7,1.3l0.5,0.5
		v1.2l-0.9,0.9h-1.2l-0.8,1.6h1.3v1.9l0.8,0.7h1.1l-0.4,1.3h-0.7v0.7l0.5,0.8l1.1,0.8h-2.4l-0.4-0.4l-1.2-0.1v0.5L308,421l0.3,5.2
		l-1.1-2l-0.8-0.8h-0.8v2.1l0.5,0.5l-0.9,0.1l-1.2-1.1l0.1-1.3l-0.4-1.3l-0.4-0.4l-6.7,0.5l-1.1,0.9v0.9l-0.8,0.7l0.4,1.3l0.5,0.5
		h0.8l0.7,0.7l-1.2,0.5l-0.7-0.5h-0.4l-0.1-0.1h-0.4l-0.1-0.4l-0.1-0.1v-0.1l-1.2-0.4l0,0l-0.3-0.1v-0.1l-0.3-0.8l0.1-0.3l-0.4-0.3
		v-0.1h-0.4l-0.3-0.1l-0.8,0.1l-0.4,0.3l-2,0.3l-0.7,0.3l-0.1,0.3l-0.3-0.3l-0.1-0.1h-0.5v0.3l0,0l0,0h-0.7l0,0v0.1h0.1h0.3l0.1,0.1
		l-0.1,0.1V426v-0.1h-0.4v-0.1v-0.3l0.1-0.1h-1.7l-3.3,1.2l-1.9,1.3l-0.3,1.1l-0.3,0.4l0.1,0.3v0.1h-0.1v0.1l0.1,0.4l0.1,0.1v0.1
		l0.1,0.7l-0.1,0.5l0.1,0.3h-0.4l-0.3,0.3l0.5,0.4h0.4h0.1h0.1l0.5,0.3h0.4l0.1-0.1l0.5-0.1l0.1,0.1v0.3h0.4l0.1,0.1h-0.3l-0.3,0.1
		l-0.5,0.8l-0.1,1.3v0.3l0.4,0.5l1.5,0.1l0.9-0.3h0.3l0.3-0.1l0.1-0.1h0.4l0.1,0.1l-1.6,0.4l-0.1,0.4l0.1,0.3v0.8l-0.5,0.9l-0.5,0.3
		l-0.3,0.4l-0.3,0.1l-0.5,0.1l-0.7,0.4v0.1v0.1l-0.4,0.4l-0.3,0.1h-0.3l-0.3,0.1h-0.3l0,0h-0.1l-0.3-0.3h-0.3l-0.4-0.4h-0.9
		l-0.7-0.4h-0.4v-0.4l-0.5-0.1l-0.3-0.3h0.8l0.7-0.8l-0.3-0.1v-0.1v-0.3v-0.1l0.1-0.1v-0.3l-0.9-0.3v-0.5l-0.3-0.3v-0.4l0.1-0.3
		l1.2,0.3l0.4-0.3h0.3l0.1-0.1v-0.3l0.1-0.1h0.3l0.3-0.4v-0.3l-0.5-0.4l-0.7,0.1l-0.3,0.3l-0.1-0.1l-0.1-1.6l-0.4-0.8l0.1-0.3
		l-0.7-0.3l-0.8,0.7v0.1l0.1,0.4l-0.4-0.1l-0.3-0.3h-0.1l-0.4-0.4l0.3-0.5l-0.5-0.1l-0.4,0.1l-1.6,6.3l0.7,0.3h-0.5l-0.3,0.1
		l-1.7,3.3l-2.3,2.3v0.3l-0.4,0.3l0.5,0.7h0.3l0.7,0.5H267l-0.4-0.4h-0.3l-0.5-0.5h-0.4l-0.1,0.1v1.3l0.3,0.3h0.1l0.7,0.5h0.3
		l0.8,0.7h0.4l0.3,0.3l1.3,0.5h0.8l0.7-0.7l0.1,0.1h0.1h0.1h0.3l0.3-0.1l0,0l0.3-0.1h0.3v0.1h0.4v0.4l-0.1,0.1h-0.5l-0.1-0.1h-0.4
		l-0.1,0.1h-0.4h-0.1h-0.4l-0.7,0.4h-0.4l-0.4-0.4l-1.6-0.3l-0.8-0.7v-0.1h-0.1l-0.7-0.5h-0.3l-0.3-0.3h-0.1l-0.3-0.3l-0.1,0.1h-0.4
		l-0.1,0.1h-0.4l-0.3,0.3v0.4h0.3l0.3-0.3h0.3h0.4l0.3,0.4v0.4l0.1,0.1l0.1,0.3l0.1,0.1h0.5l0.3,0.3h0.1l0.5,0.4h0.9l0.4-0.3
		l0.1,0.1l-0.3,0.3l-0.4,0.1l-0.1,0.1h-1.2l-0.1-0.1h-0.4v0.1l0.3,0.3h0.3l0.1,0.1h0.1v0.4l-0.1-0.1l-0.1-0.1h-0.5l-0.1-0.1h-0.1
		l-0.3,0.1l-0.1,0.1h-0.4l-0.1,0.1l0.4,0.4l0.1,0.3l0.3,0.3h0.7l0.3,0.3h0.4h0.1h0.3l0.3,0.3v0.4l-0.3,0.1v0.1h-1.3l-1.3-1.2h-0.4
		l-0.3-0.3h-1.5l-0.4,0.3l-0.7-0.5v-0.3l0.5,0.5h0.1l0.1-0.1h1.1l0.4-0.3v-0.1l-0.3-0.3h-1.6l-0.3,0.1H261l-0.1-0.1h-0.4l-0.1,0.1
		l-0.4,0.1l-0.4,0.4h-0.3v0.3l0.3,0.3v0.1l0.8,0.9h0.8l0.4-0.3v0.3l0.4,0.5h0.3l0.5,0.3l0.7-0.1l0.1-0.1v-0.4l0.3-0.3h0.3h0.3
		l0.3,0.1l0.1,0.1h0.3l0.4,0.4h1.1l0.3,0.3l-0.1,0.1l-0.1,0.3v-0.3h-0.3l-0.1,0.1h-0.4l-0.1,0.1l-0.1-0.1h-0.1H265l-0.4-0.5h-0.5
		v0.4l-0.5,0.1l-0.3,0.1h-0.7l-0.1-0.1h-0.4l-0.3,0.1l-0.7-0.7h-0.7l-0.4-0.4h-0.3l-0.5,0.3h-0.4l-0.8,0.4h-1.6l-0.5,0.5h-0.8
		l-2.8,1.9l-2,0.1l-0.7,0.7l-5.8,0.5l-1.5,0.8l-5.5,0.3l-2.9,2.4l-0.3,3.7l-0.8,0.9v2.4l1.3,1.3l-3.6,3.6h-3.7l-2.7,1.5H223
		l-4.1,2.9v1.2l0.7,0.7h1.5v1.2h-1.7l-1.1,1.1l-12.2,0.1l-1.3-1.3l-1.3-3.1h-6.4l0.4,3.2l1.5,1.5v3.5l1.6,1.6v2.4l1.1,1.1l-1.1,1.1
		l-7.5,0.1l-1.1-1.1l-1.6,0.7l-1.1,1.1l-4.5-4H183l-1.6,1.6l-1.1-1.1l-1.7,1.7l-8.6,0.3l-3.1,2.5v1.9h3.1l-0.3,4h-1.2v1.2h1.7l2,1.2
		v1.5h6.4l2.3,2.1h2.4l1.2,2.3h6.7l1.1,2.7l2.7-0.3l1.7,0.5l-2,2l0.3,2.4l4.1,5.9l5,1.5l1.3,1.3l-1.6,2.8l1.6,5.4l3.6,3.6l0.1,3.6
		l-1.2-1.2l-0.9-2.7L206,533h-1.6l-1.5,18.9l-1.1,0.9l0.3,2.9l-4.3,5.6h-7.4l-1.2-1.2l-1.7-0.7h-1.3l-1.6,1.3l-3.2-0.4l-1.5-1.5
		l-38-0.7l-4-2.8l-5.1,0.3l-1.9,1.1v2.9l-1.1,0.7l-7.8,1.3l-2.8,3.2v0.7l1.5,1.7l2,1.1l0.5,1.1l0.3,11.2l-0.7,0.7l0.4,1.1v1.2
		l0.8,2.4v2.5l0.7,0.7l0.5,3.7l-0.9,0.9v2.7l-0.7,2.1v2.7l-1.7,1.7l-0.3,3.7l-1.3,1.5l-0.4,1.2l-1.5,1.5v1.1l-0.7,0.7l-0.7,5.2
		l0.7,0.7v0.9l1.6,0.3l2.8-2.8v1.1l-2.3,2.9v1.5l4,0.3l0.4-0.4l-0.8,0.8l0.8,0.8l-0.8,1.7l-0.3,7.6l0.7,1.7v1.3l-1.9,1.9l0.4,2
		l0.4-0.5l4.7-0.5l2.9,1.1h3.9l0.5-0.5l2.7-1.3l0.4-1.1h6l2.9,2.9l2.3,0.7l0.7,0.7v2.7l0.5,1.1l0.7,0.7l0.9,3.5l2.7,2.1l1.2,0.1
		l0.7,0.7h1.3l1.5-0.7l1.7-1.9v-1.3l2.3-1.3l4.3-0.1l1.6-2.3h0.7l0.7-0.7h5.5l1.2-0.5l5.5-0.3l0.7,0.7h2.8l1.9,0.7l1.9-1.9h0.7
		l2.9,0.9l2.9-2.9l0.8-3.7l4.5-3.2h3.7l1.3-0.5v-0.8l1.9-2l1.5-4.8l4.1-4.5h0.9l2.9-2.3l-4-5.1l-0.4-1.1l0.7-6.4l8.2-10l3.2-1.7
		l-0.7-0.7v-2l1.5-0.8l1.1-1.1l5.1-1.9h1.5l0.7-0.7h1.2l2.5-2.5h1.5l1.5-1.6l0.4-1.1v-2.7l0.9-0.9v-1.2l0.7-0.7v-4.5l-0.4-0.3v-2.9
		l-0.3-0.7l0.7-3.1l2.1-2.1l1.3-0.7l1.9-0.1l5.8-3.6l1.3,0.1v0.7l0.3,0.4v0.4h2.3l0.4,0.3h1.3l0.4,0.4l0.7,0.3l0.8,0.7h0.5l0.3-0.3
		l2.8-0.4l0.4-0.8l0.3-0.3h0.3l1.2,0.8v0.3l-0.4,0.3l-1.5,0.1v0.5l3.2,0.4l0.3,0.3v0.3l0.4,0.7l-0.1,0.3l0.7,0.3h0.3l1.7,0.7h0.8
		l0.1,0.5l2,0.8l0.4-0.1l2.1,0.3l0.3,0.1l0.5-0.4l5-0.8l0.5-1.7l0.8-0.9l2.5-1.5l0.3-0.5l0.4-0.3h0.5l0.4-0.4l1.2-0.5v-0.4l0.8-0.7
		l1.3-0.1l0.8-0.8l1.9,0.1l0.5-0.5l5.1-1.6l0.9-2.1l2.9-2.1v-1.5l3.5-3.5h4.1l2.9,2.1h3.3l7.1,3.7l1.5,6.7l2.1,2.7v2.8l2.7,2.7
		l0.4,1.2l21,17.3h2.5l1.9,1.9h4.8l7.8,7.6h3.1l5.5,7.4l2.9,1.5h1.5l1.5,1.2v3.7l3.2,1.1v4.7l1.7,1.7l-1.3,1.3l-0.8,2h-1.7v2.5
		l-0.9,2.1l-2.1,2.1v1.6l5.6,0.9l5.1-6.4v-3.1l2-2l4.7-1.7l-0.7-5l-5.5-5.6v-2.5l4.4-4.5h1.6l1.7,1.7l4.7-0.5l2,2.1v2.1h4.4l0.7-2.7
		l-0.3-1.7L397.1,589h-0.4l-9.8-4.4l1.2-2.5l1.9-1.9l-1.6-2l-12.3-0.5l-2.1-2.3l-5.2-2l-2.5-2.7l-0.8-7.2l-5.8-7.6l-2.9-1.5h-1.3
		l-6.4-7v-4.1l1.7-1.7v-2.4l-1.3-1.3l-0.9-2.4l-1.5-1.1l2.4-2.4l1.6,0.4l1.2-0.1l1.7-0.9h0.8l-0.4-0.8l0.5-0.5l2.9-0.4l0.9,0.4
		l0.7-0.1l0.4,0.9h0.4l0.7,1.5l1.5,1.1L362,534v0.4l0.7,1.1v1.9l3.9,5.5l1.1-0.8l0.1-0.7v-0.5l0.4-0.8l0.3-0.3l1.2-2.8v-1.6l0.9-0.4
		h0.4l1.7,0.9l0.5,0.8l2.4,1.7l0.3,0.8l0.4,0.4l0.4,4.5l3.5,4.5l0.1,1.7l2.3,2l0.4,0.8l5.6,3.3l0.1,1.6l0.5,0.7l1.3,0.7l0.4-0.5
		l1.3-0.7l7.6,1.5l16.1,10.7l0.4,1.2l8.7,9.1v2.9l-0.5,1.6v4.1l-1.1,2.8v5.5l7.1,6.3l0.4,1.3l0.8,0.8l0.8,2.7l3.2,2.8l1.3-0.1
		l2.9,0.9l0.5,0.8l-0.3,0.8l-4.1-1.3l0.9,2.3l1.2,1.1l1.2,2.9v0.8l0.4,0.8l0.8,0.7l0.7,0.1l0.7-0.4l0.1-0.4l1.1,1.3l1.2,0.3l0.8-0.5
		l1.5,0.3l0.8-0.4h0.7l0.3-0.1l1.9-0.4l7,1.9l4.8,3.3l-0.1,0.5l-1.2,0.4l-1.1-0.4l-0.7,0.4l0.1,0.5l-0.3,0.5l-0.4,0.3l-3.5-2.1
		l-0.3-0.4l-3.6-1.3l-0.9-0.9l-2-0.9l-1.7,0.5l-0.1,0.5l-0.7,0.1l-0.4,0.3l-1.5-0.1l-0.9-0.5l-0.7,1.3l-0.5,0.3v0.8l-0.5,0.7
		l-1.5,0.4l-0.3,0.9l2.3,1.9l0.1,0.7l1.5,1.1l1.9,3.1l-0.4,1.3l-1.1,1.1l-0.3,0.8v0.8l0.5,0.9l0.5,0.5v0.5l-0.3,0.7l0.3,0.5
		l-0.1,0.8l2.7,0.3l0.4-0.7l-0.3-1.2l0.1-0.7l0.5-0.4l0.8-0.4l0.7,0.3l0.3,0.4v0.7l2.5,3.9l-0.7,1.7l0.5,0.8l0.9,0.4l0.3-1.2V646
		l1.5-2.5l0.4-0.3l1.7,0.4v1.3l0.7,0.9l0.4,0.1l0.4,0.7l0.1,0.5l0.8,0.4l0.5,0.8l0.4,0.3l0.5-0.5l-1.3-2.9l0.7-1.7l-3.5-9.2l0.4-1.1
		l0.7,0.3l1.3,0.9l1.1,0.3l0.9,1.1l-0.3,0.9l0.3,0.7l1.3-0.7l0.4-0.4l0.4-0.1l1.5,0.1l0.4-0.3l0.3-0.7l-1.2-1.2l-0.1-0.5l-0.5,0.3
		l-1.1-0.1l-0.4-0.4l-1.1-2.9l-0.9-0.5l0.1-0.4l3.5-1.1l3.2,0.5l1.5,1.7l0.5,0.3l1.6,2l0.5,0.3l0.7-0.7l0.1-0.5l-0.8-4.5l0.5-0.7
		v-0.5l-0.5-0.9l-1.6-0.3l-5.1-3.9l-0.3-0.7l-0.4-0.7l-0.9-0.3l-0.3,0.1l-0.9-0.3l-0.5-0.8l-4.3-1.7l-0.4-0.5l0.3-0.4l3.7,0.8
		l0.7-0.1l0.4-1.2l-0.7-1.1l-0.1-0.9l-1.2-1.3l0.1-0.7l1.1-0.7l0.1-0.3l0.7,0.1l1.5,1.3l0.3,0.4l0.5,0.5l1.2,0.3l-0.1-0.7l-7.9-11.9
		l1.3-1.3l0.1-1.7l0.7-0.7h0.7l1.5-1.1l1.6,3.7l1.1,1.1h0.9l0.9,1.3v0.7l1.7,2.1l0.5-0.7v-1.3l-0.7-0.7v-0.7l0.5-0.4l3.1,3.1h1.2
		l0.7-0.7l-2-2l-0.4-1.3l0.8-0.8l2.8,2.8l1.1-0.7v-1.1l-4.1-4.1l0.1-2.1l5.8,0.3l1.9-1.9h4.1l0.4-0.4h2.1l0.4-0.4l2.3,1.6l1.6-0.5
		h2.8l1.1,0.8h2.1v0.9l1.9-2l1.1-4.1l1.6-0.8l0.9-1.6l-2.3-4.7l1.3-1.3l6.2-2.1h1.2l0.8,0.8l6.2,0.7l0.8-0.8l-1.1-2.3l-1.9-1.9
		l-0.7-1.6l6.4-12.3l2,0.4l0.9-0.5l1.7-12.6l2-2.1l0.3-1.2l-0.3-1.2l1.1-1.1v-1.7l1.2,0.1l-0.3,1.3l5.1-0.4l1.3-1.6l-0.4-2.1
		l1.1-1.1l0.3-0.7l-0.8-2.4v-2.7h0.8l3.1-2l1.6-0.4l3.1-3.9h0.9l2.1-4.1l1.6-1.6l5.9-0.9l1.6,0.7h1.6l1.6-3.3l0.3-2.4l-2-2.3
		l0.4-1.6v1.2l2.5,2.1l0.3,5.1l0.7,1.1l2.8-0.1l1.2-0.7h1.3l-1.9,2.4h-4.5l-0.7,0.7l-0.1,1.5l-0.9,0.9l19.3,2.8l0.7,1.3l-0.8,0.8
		h-1.6l-9.4,6.2h1.3l7.8,3.9l0.8,1.1l-0.4,4.5l-1.3,1.5l2,0.8l0.9,1.2h3.7l5.4-3.9l0.9-1.6l4.4-0.4l3.6-2.1l0.4-0.8l2.5,0.4l1.7,0.8
		h3.2l2.5-1.5h1.6l1.3-2.1v-1.5l-3.7-1.3l-1.7,0.8l-4.4,0.1l-2,0.8l-1.9-0.4l-5.1-7.9v-2.3l1.9-0.9l1.7-2.3l3.7-0.7l3.1-3.2l6.4-0.8
		l0.8-0.9l3.5,0.4l15-5.6l0.4-4.3l1.3-1.7l2.4-1.1l2.7-2.4l9.6-0.4l0.3-1.6l1.1-1.2l-0.8-5.8l-0.9-0.8v-1.3l1.3-2.8l-0.8-2.1
		l1.9-1.3l0.8-1.7v-2.1L642.8,477.4L642.8,477.4z"/>
	<polygon fill="#AD5309" points="274.7,297.9 277.5,299.4 278.7,299.4 276.9,300.1 274.1,300.1 272.4,302.5 293.7,301.8 
		296.2,302.7 297.4,303.8 295.9,305.4 294.1,305.4 292.9,306.4 291.4,305 277.9,304.5 273.5,308.8 274.3,309.6 275.9,309.6 
		275.9,310.4 277.9,311.2 276.7,312.4 277.5,313.2 278.6,313.7 276.9,315.3 275.5,315.3 272.5,316.3 272.5,317.9 273.9,319.2 
		274.7,318.4 277.6,318.4 279.2,320.1 281.5,319.5 285,315.7 286.7,315.7 288.6,316.9 287.8,317.6 286.8,317.6 286.2,316.9 
		284.4,318.7 284.4,320.1 281.6,320.9 278.8,323.8 280,325 281.4,325.5 283.6,325.5 282.6,326.6 281.4,326.6 278.1,329.8 
		276.7,329.8 273.6,331.2 274.1,331.8 274.1,333.1 277.2,333.1 279.6,332.2 279.2,330.7 283.5,330.6 285.2,328.8 285.9,329.5 
		284,331.2 283.5,333 284.4,333.9 283.2,333.9 282.2,335 281.6,337.4 283.5,337.7 284.3,336.9 285.5,336.9 283,339.4 280.8,339.4 
		279,337.5 278.3,339.5 277.1,340.7 277.1,342.4 280.2,345.6 281.4,347.7 284.3,347.7 284.3,349 287.1,350.4 288.2,349.3 
		290.1,349.3 290.3,350 288.3,352.3 292.3,352.3 293.3,353.2 300.5,353.2 301.4,352.3 303.2,351.9 303.8,351.2 306.2,351.2 
		308.4,349 309.3,349 311.3,346.9 312.8,346.9 314,345.7 315.5,342.5 317.5,340.5 318.8,340.5 320.2,339.1 320.2,337.5 321.1,336.6 
		322.3,337.8 323.2,337.8 324.4,336.5 325.7,336.5 326.2,335 328.9,332.2 327.4,330.7 327.4,329.2 329,328.4 329,325.5 330.5,323.9 
		331.4,324.8 331.4,326.8 330.5,327.8 330.5,329.8 331.7,331 331.7,334.5 336.2,335.4 336.2,338.9 336.5,339.1 338.1,347 
		338.6,347.7 340.2,349 340.5,349.7 342.9,351.7 342.8,356.4 344.2,359.2 344.2,360.3 346.9,363.8 347.6,366.7 348.3,367.8 
		348.4,368.7 351.9,372.9 353.1,373.4 354.2,374.5 354.7,376.6 353.3,377.7 352,380.4 352.7,386.5 354.6,387.3 355.6,388.9 
		356.8,392.9 358.8,394 361.6,393.9 362.4,393.2 369.3,392.7 369.5,390.1 370.1,389.6 370.1,388.8 368.9,387.6 369.3,386.6 
		370.6,385.7 370.6,385 371.5,384.1 373.7,383.8 375.4,381.7 376.5,381.7 377.6,381.4 383.7,381.4 384,382.5 385.5,384.1 
		386.8,381.4 387.7,380.5 388.7,378.8 388.8,377 390.8,375.1 390.8,374.2 392.7,371.7 392.8,369.9 393.4,369.4 393.5,363.8 
		394,363.8 394.7,362.3 394.4,356.8 393.6,355.5 395,355.3 395,350.8 395.9,349 395.2,347.3 395,347 395.9,346.2 396.2,345.3 
		395,344.2 397.8,343.8 399.5,342.1 401,342.4 403.5,341.7 405.4,339.5 405.1,338.5 405.4,338.2 406.2,338.5 406.9,339.4 
		406.9,340.3 412.8,334.9 411,333.1 410.8,331.8 411.8,331.8 411.8,333.4 413.4,334.3 415,334.1 414.4,332.6 413,331.6 413,331.1 
		415.2,328.6 417,328.3 419.6,324.2 417.4,321.3 415.8,320.7 412.9,317.6 413,316.7 410.4,315.5 409,314 407.7,314 403.9,311.3 
		400.6,310.9 400.6,302.5 400.2,301.4 400.3,295.5 402.5,292.7 402.1,291.4 403,290.6 403,289.4 404.1,288.3 404.1,286.6 
		404.7,285.2 403.1,284.1 403.7,281.2 407,280.8 408.1,280.3 408.7,275.5 408.1,274 409.9,276 412.5,275.2 414.1,273 415.6,272.4 
		416.1,271.2 417.6,269.6 421.1,268.9 427.3,263.9 428.3,263.9 430,262.6 431.5,262.2 433.5,260.5 436.6,259.3 438.2,259.3 
		438.3,258.3 439.8,256.9 439.8,256 446.6,248.4 446.6,247.8 446.3,246.7 443.8,244.1 443.1,242.4 443.7,242.4 444.3,240.9 
		446.6,238.9 447.1,236.1 448,235.3 448.2,233.8 447.8,233.2 448.6,232.4 450.2,232.4 451.6,231 451.6,230 452.4,229.2 453.8,229.2 
		455,228.5 455,227.5 455.8,225.7 458.8,225.9 458.8,225.3 459.7,224.6 460.5,224.6 461.3,225.5 462.8,226.2 477.9,225.4 479.5,227 
		480.9,227 481.7,227.8 482.6,227.7 484.5,229.7 486.4,230.2 486.8,233.3 486.1,235.4 486.5,237.3 487.8,238.7 487.8,239.5 
		487,240.5 486.9,241.5 481.8,241.5 481.1,242.1 480.2,242.7 468.6,255.2 467.1,255.6 466.6,256.2 466.4,257.3 465.6,258.1 
		464.4,257.9 462.8,258.7 461.2,261.8 458.5,262.5 457.7,261.9 455.8,264.3 455.8,267.8 455.2,268.4 453.8,269 447.5,269 
		446.7,270.5 446.2,274 444.7,274.5 443.4,276.8 443.4,283.5 444.5,284.1 444.5,285 444.9,285.9 444.9,291.2 446.3,292.4 
		447.5,296.9 446.9,297.5 447.3,300.2 446.6,300.9 446.7,303.3 445.9,304.1 445.1,309.3 445.5,311.2 446.3,312 448.9,313.2 
		450.1,314.4 452.9,314.4 453.4,314.9 457.2,316.1 457.7,316.7 457,318.7 461.3,318.3 461.3,318.7 461.9,319.2 461.9,319.9 
		464.3,322.3 479,321.5 479,320.7 481.7,318.9 484.9,319.2 491.2,316.5 492,316.9 494.6,316.7 494.9,316.3 495.9,316.3 499.7,314.4 
		501.2,314.9 513.9,314.3 550.4,280 552.6,274.9 552.6,273.4 536.5,260.7 540.1,258.3 542.3,254.6 542.4,253.4 536.8,248.4 
		536.8,246 537.5,245.1 537.5,243.9 533.6,241.3 532.4,239.1 534.1,237.2 534.1,236.1 533.6,235.6 534.8,227.5 538,227.3 538,224.1 
		526.9,206.3 527,205.2 535.6,194 536.3,192.4 536.1,191.6 527.8,183.7 525.4,183.1 521.9,179.5 520.9,177.2 520.9,175.6 
		522.9,173.6 522.6,169.9 521.9,169.1 522.7,167.9 524.1,167.9 525,166.1 527.4,166.1 530,163.6 531,161 532.5,161 533.1,160.4 
		535.6,160.4 538.9,156.4 540.4,155.4 542.8,157.3 545.5,157.3 546.2,156.6 545.8,154.4 547.1,153 545.6,151.5 544.6,152.6 
		542.3,153.2 540.7,151.3 539.3,152.6 534.3,152.6 534.3,151.3 532,148.9 530.6,148.9 529,147.4 527.6,147.3 524.8,145.9 
		527.2,145.3 529.6,146.3 539.2,146.3 542.8,143 544.7,143 547,142.2 547.9,142.2 546.6,140.8 546.6,138.6 541.1,137.5 537.7,134.8 
		530.2,134.8 530.5,133.3 529.2,132.1 524.1,131.9 521.3,134.3 521.3,135.6 518.9,140.8 518.9,139.5 517.4,138.8 517.4,137 
		516.7,136.4 517.8,135.2 517.3,134.7 515.1,134.7 515.1,133.5 517.8,131.5 520.9,130.8 520.2,130 520.2,128.9 518.5,128.9 
		518.5,127.3 516.3,127.3 515,128 511.2,128 510,128.5 509.2,129.3 509.1,130.8 509.8,133.1 507.2,135.1 506.3,137.4 506.3,138.4 
		505.2,138.4 504.7,138.8 503.9,138.4 501.3,140.2 500.3,140.2 500.4,135.5 501.2,134.7 501.3,129.7 500.7,130.7 499.5,130.7 
		497.9,132.3 496.7,132.1 488.8,139.9 488,144.2 487.2,145 484.9,145.1 484.2,144.5 483.9,143 484.9,142 484.9,139.8 485.7,139 
		485,138 486.8,137.5 490.6,133.3 491.6,133.3 492.9,130 496.5,130.1 493,126.7 490.2,126.7 489.3,128.5 490.5,129.7 488.4,130.4 
		487.6,131.2 486.2,131.2 484.6,130.3 484.6,129.3 483,129.3 479.7,130.8 479.7,131.9 478.5,133.6 479.7,133.6 479.7,135.6 
		475.8,135.6 476.1,138.8 470.7,139.1 469.8,140 469.1,142.3 465.1,144.5 465.1,145.7 466.3,146.9 463.9,147.7 461.5,145.8 
		461.5,144.1 460.7,143.2 460.7,141.1 458,142.4 457,143.4 455.3,144.3 452.5,143.1 451,143.8 448.6,142.8 445.1,142.8 445.1,143.9 
		447.5,144.9 449.6,146.9 451.4,147.1 451.4,148.3 450.1,150.2 450.1,149.3 447.5,149.5 445.8,147.8 443.8,148.6 443.5,151.3 
		441.5,151.3 440.5,150.2 437.1,154.1 438.3,156.1 437.1,156.1 430.3,160.5 432.2,158.5 432.2,157.7 433.9,156.1 433.9,154.9 
		434.7,154 434.7,149.9 429.2,153 428.4,154.4 429.2,155.3 427.2,158 425.6,158.5 426.1,158 427.1,153.2 421.7,153.2 420.8,154.1 
		420,156.1 420,157.8 422.4,160.4 420.7,160.4 418.5,158.2 417.6,156.4 417.6,152.9 414.8,152.9 413.2,154.5 413.2,156.1 
		415.2,157.8 415,158.9 417,161 415,161 414.4,162 410.2,157.8 408.2,157.8 408.2,156.6 409.3,155 405.1,156.6 403.8,158 402.2,158 
		400.3,159.8 397.8,160.9 399.9,163.1 398.6,164.3 399.8,165.7 402.6,165.7 404.5,163.7 406.7,164.8 404.7,166.7 404.5,168.9 
		405.4,169.9 405.9,171.2 404.5,172.6 401.1,171.1 399.5,172.6 396.7,174 395.5,175.2 396.2,176.7 400.9,177.6 401.7,176.8 
		405,176.8 402.9,179 402.2,179 401.4,179.6 401.4,180.4 399.8,179.1 397.4,179.1 393.5,177.8 393.5,179.8 394.7,181 391.9,184.7 
		392,186.7 390.1,187 389.2,185.9 389.2,182.5 387.1,182.5 384.7,184.9 386.7,187 385.2,187.8 382.9,187.8 380.5,186.7 378.9,187.3 
		378.4,187.8 377.6,189.3 375.7,191.2 379,191.3 380.4,190.1 383.7,190.6 384.8,191.7 384.1,192.5 381.4,192.5 380.8,193.2 
		382.5,195 384.1,195 384.8,196.5 380.4,196.2 377.7,194.9 376.9,195.8 372.1,197.4 375,199.2 385.9,199.4 381,201.6 380,201.6 
		377.8,200.3 373.4,200.5 370.7,203.2 367.9,203.6 363.5,207.3 364.1,207.9 360.8,210.8 361.5,212.4 359.9,214 358,214 357.8,215.4 
		359.4,216.8 365.9,216.4 363.3,218.7 356.8,219.3 357.8,224.1 357.1,223.5 355.1,223.5 353.1,224.3 353.1,225.3 352,226.5 
		350.8,226.7 350,227.5 350.5,229.4 351.7,229.4 352.4,231.7 351.3,231.7 349.7,231 348.9,231 346.9,232.9 348.3,234.4 350.3,234.4 
		350.3,235.6 351.6,235.6 354.3,234.8 351.1,238.4 342.8,238.7 342.8,241.1 343.6,242 341.6,242.7 340.4,243.9 340.4,245.1 
		342.2,246.7 340.8,248.2 340.4,249.6 338.4,249.6 336.9,248.2 333.1,248.2 332.6,249.6 330.9,249.9 330.3,251.4 328.9,252.8 
		327.4,252.8 325.9,254.3 326.5,255.8 326.5,257.1 325.1,257.1 322.4,259.8 323.5,260.9 322.7,261.7 323.5,263.9 324.8,264.1 
		325.7,263.3 327.3,263.3 328.5,262.1 329.4,262.1 331.4,261.4 332.5,261.4 333.9,259.9 332.1,257.9 334.2,257.9 337.6,255.4 
		339.8,255.4 339.6,256.9 337.4,257.4 336.1,259.1 337.4,260.3 337.4,261.3 334.5,261.3 332.7,263 333,263.9 333.8,264.9 333.3,266 
		326.2,265.5 325.9,267 325.1,267.8 322.8,268.1 322.8,265.7 321,263.9 319.6,263.3 314.5,268.4 314.5,266 314,266.5 311.1,266.5 
		309.6,268.9 309.6,270.8 308.3,270.8 307.6,272.1 310.8,275.5 307.9,274.4 306.2,274.4 305.2,273.2 303.8,273.2 307.3,276.7 
		307.3,278.4 304.8,275.7 303.2,275.7 301.6,274.2 301.6,272.8 300.1,272.8 299,273.7 293,273.7 292.7,275 294.2,276.7 296.5,276.7 
		299.4,278 297.4,280 294.1,280 291.4,279.1 286.8,279.9 289.4,281.6 291.3,281.6 294.9,285.9 293.8,286.8 293.8,285.2 286.8,281.9 
		287.8,282.9 286.3,282.9 286.3,285.8 285.4,284.8 283,284.5 281.6,285.8 284,288.2 277.9,288 275.9,289.9 279.9,291.9 280.8,292.7 
		272,293.6 272,295.3 	"/>
	<polygon fill="#AD5309" points="575.2,222.1 575.2,209.2 574.9,209.3 	"/>
	<path fill="#AD5309" d="M575.2,209.2l0.7-0.7L575.2,209.2z"/>
	<polygon fill="#AD5309" points="693.1,434.4 694,433.6 692.7,434.4 	"/>
	<polygon fill="#AD5309" points="676.6,199.4 676.1,200 676.2,201.6 677.7,203.3 677.8,204.1 677.4,205.3 675.7,206 666.3,204.7 
		665.9,205.3 665.9,206.3 666.7,206.4 668.9,208.3 670.5,207.1 671.3,206.9 672.6,207.5 678.1,207.5 679.2,207.1 680.1,207.1 
		680.9,207.9 681.4,207.9 684.1,210.3 684.5,210.4 686,208.4 686.3,207.3 687.2,206.3 690.4,207.5 691.2,207.5 693.4,206.1 
		698.2,206.3 699.4,206.7 701,206.7 702.9,205.2 702.9,204.8 702.5,203.9 700,201.9 699,201.9 696.6,200.9 696.6,200.5 694.6,200.1 
		693.6,199.2 693.6,198.4 693.1,198 684.7,196.1 683.2,196.4 682.1,197.4 679,197.4 677.3,195.8 675.2,195.3 674.5,196.1 
		673.1,196.4 672.7,196.9 672.7,198.2 674.4,198.2 	"/>
	<polygon fill="#AD5309" points="604.8,183 604.8,184.1 607.7,182.1 612.4,180.8 616,178.4 621.8,179.1 621.4,180.2 619.9,181.2 
		624.4,181.8 624.8,182.3 626,182.7 628.3,182.3 629.5,182.7 632.7,185.4 637.4,186.3 639.3,186.1 640.1,186.7 640.4,187.8 
		640.4,189.4 642.8,191.7 646.9,191.6 649.1,192.4 649.7,193.2 649.1,194.2 647.3,194.9 646,196.2 646.8,197 649.6,196.6 650.7,196 
		660.7,196.9 661.5,196.6 663,195.2 666.5,195.2 667.3,194.2 666.5,193.4 665.1,193.2 664.2,192 660.8,190.9 658.6,190.9 
		657.5,189.8 657.5,189 653.7,188.2 652.3,186.6 650.3,185.9 648.5,184.6 648.1,184.5 647.7,184.2 643.3,183 642.5,182.3 
		636.9,180.3 635.4,180.3 632.6,177.2 629.3,176.7 627.8,175.9 623.9,175.4 622.3,175.9 619.1,175.2 606,179.4 604.4,181.4 
		605.2,182.3 	"/>
</g>
</svg>
