<?xml version="1.0" encoding="utf-8"?>
<!-- Generator: Adobe Illustrator 17.1.0, SVG Export Plug-In . SVG Version: 6.00 Build 0)  -->
<!DOCTYPE svg PUBLIC "-//W3C//DTD SVG 1.1//EN" "http://www.w3.org/Graphics/SVG/1.1/DTD/svg11.dtd">
<svg version="1.1" id="Layer_1" xmlns="http://www.w3.org/2000/svg" xmlns:xlink="http://www.w3.org/1999/xlink" x="0px" y="0px"
	 viewBox="-191 -191 482 482" enable-background="new -191 -191 482 482" xml:space="preserve">
<pattern  x="-349" y="451" width="27.1" height="27.1" patternUnits="userSpaceOnUse" id="Grid_1_pica_Lines" viewBox="0 -27.1 27.1 27.1" overflow="visible">
	<g>
		<polygon fill="none" points="0,-27.1 27.1,-27.1 27.1,0 0,0 		"/>
		<line fill="none" stroke="#FFFFFF" stroke-width="0.1084" x1="2.3" y1="-27.1" x2="2.3" y2="0"/>
		<line fill="none" stroke="#FFFFFF" stroke-width="0.1084" x1="11.3" y1="-27.1" x2="11.3" y2="0"/>
		<line fill="none" stroke="#FFFFFF" stroke-width="0.1084" x1="20.2" y1="-27.1" x2="20.2" y2="0"/>
		<line fill="none" stroke="#FFFFFF" stroke-width="0.1084" x1="0" y1="-2.3" x2="27.1" y2="-2.3"/>
		<line fill="none" stroke="#FFFFFF" stroke-width="0.1084" x1="0" y1="-11.3" x2="27.1" y2="-11.3"/>
		<line fill="none" stroke="#FFFFFF" stroke-width="0.1084" x1="0" y1="-20.2" x2="27.1" y2="-20.2"/>
		<line fill="none" stroke="#FFFFFF" stroke-width="0.1084" x1="0" y1="-6.8" x2="27.1" y2="-6.8"/>
		<line fill="none" stroke="#FFFFFF" stroke-width="0.1084" x1="0" y1="-15.8" x2="27.1" y2="-15.8"/>
		<line fill="none" stroke="#FFFFFF" stroke-width="0.1084" x1="0" y1="-24.7" x2="27.1" y2="-24.7"/>
		<line fill="none" stroke="#FFFFFF" stroke-width="0.1084" x1="6.8" y1="-27.1" x2="6.8" y2="0"/>
		<line fill="none" stroke="#FFFFFF" stroke-width="0.1084" x1="15.8" y1="-27.1" x2="15.8" y2="0"/>
		<line fill="none" stroke="#FFFFFF" stroke-width="0.1084" x1="24.7" y1="-27.1" x2="24.7" y2="0"/>
	</g>
</pattern>
<g id="Captions">
</g>
<g id="Your_Icon">
	<polygon fill="url(#Grid_1_pica_Lines)" points="-7.3,199.5 -7.6,199.2 -7.8,197.8 -8.3,197.3 -8.6,196.2 -9,195.8 -9.3,196 
		-9.3,195.8 -9,195.1 -9,194.3 -10,193.2 -10.5,193.2 -11.1,192.6 -11.4,192.6 -11.9,192.1 -13,192.5 -13,193.2 -13.8,193.2 
		-15.2,194.8 -15.2,195.4 -15.5,195.6 -16.2,195.5 -17,196.3 -19.2,196.3 -20,195.5 -20.8,195.5 -20.6,197 -20.9,197.3 -20.9,198.2 
		-19.4,199.7 -19.4,200.3 -19.1,201.1 -18.6,201.5 -18.6,204.5 -19,204.8 -18.9,206.7 -18.2,206.7 -18,207.8 -18.9,208.3 
		-18.7,209.8 -19,210.2 -19.2,213.4 -18.6,213.9 -18.6,214.4 -17.8,215.2 -17.8,215.8 -17,216.4 -14.5,216.4 -14.5,215.6 
		-13.9,215.1 -13.8,213.5 -13,212.8 -12.2,212.8 -11.5,213.7 -9.5,214.4 -8.2,204.4 -8.7,203.5 -8.7,202.2 -8.1,201.7 -7.6,200.5 
		-7.1,200.1 	"/>
	<polygon fill="url(#Grid_1_pica_Lines)" points="35.9,221.7 35.9,221.4 35.3,221.5 34.9,221.5 34.7,221.8 33.9,222 33.6,221.9 
		33.1,222.3 33.1,222.8 30.1,222.5 28.7,224 23.6,224.1 22.7,224.8 21.6,224.8 20.8,224.1 20.3,224.1 18.8,223.1 18.3,223.1 
		17.9,223.5 16.8,223.5 16.8,223.9 16.2,224.5 15.3,224.5 14.4,223.7 13.4,223.7 12.6,224.4 12.6,227.1 12.1,227.6 13.3,228.7 
		16,228.7 16.5,229.2 18,229.8 18.8,229.8 19.8,231.3 20.8,231.3 23.6,232.9 26.4,232.9 27.5,233.3 27.5,234.1 30.6,236.3 
		33.5,236.5 33.8,236 33.5,234.7 35.2,232.7 34.7,232.2 34.7,231.9 34.2,231.6 34.6,231.2 33.9,230.5 33.4,230.5 33.4,230.1 
		33.1,229.5 33.1,228.7 33.7,227.8 33.7,227.3 34.1,226.5 34.2,225.6 35.7,222.9 35.5,222.4 36,222 	"/>
	<polygon fill="url(#Grid_1_pica_Lines)" points="-11,176.5 -11.4,177.6 -11.7,177.6 -12.2,177 -12.8,177 -13.9,178 -15,178 
		-15.4,178.4 -15.8,178.4 -16.3,178.6 -16.5,180.4 -17.2,181.1 -16.5,181.8 -17.1,182.4 -16.8,183.3 -15.6,184.4 -16.8,184.9 
		-15.9,185.7 -15.9,186.3 -16.5,186.9 -16.3,187.6 -15,187.6 -15,188 -15.3,188.4 -15.3,188.8 -14.2,189.8 -13.4,189.8 -13.3,190.1 
		-13,190.4 -12.3,190.6 -10.9,189.3 -10.6,184.9 -9.5,184.1 -9.6,178.9 -10,178.3 -10.1,174.5 -10.8,173.9 -11.1,174.2 	"/>
	<polygon fill="url(#Grid_1_pica_Lines)" points="-159.2,84.6 -158.6,84.8 -158.1,85.6 -152.1,84.3 -151.6,83.6 -150.1,83.3 
		-150.1,82.8 -150.8,82.3 -150.4,81.2 -149.7,81 -149.1,81.5 -148.8,82.3 -148.1,82.7 -147.7,82.6 -145.6,80.5 -144.4,80.3 
		-143.8,79.5 -143.8,79.2 -142.1,78.9 -141.2,79.2 -139.9,79.1 -139.3,78.7 -139,79 -138.5,77.7 -137.5,78.3 -137.1,78.9 
		-136.6,79.3 -135.2,78.9 -134.8,78.2 -134.8,76.6 -134,75.8 -132.5,71.4 -131.2,69.9 -131.5,61.7 -133.2,57.3 -132.2,56.2 
		-131.6,56.1 -131.2,56.4 -129.9,56 -129.5,54.5 -127.5,54.1 -126,52.4 -126.5,48.9 -127.2,48.5 -128.8,48.5 -128.9,47.9 
		-128.5,47.5 -127.9,47.5 -127.6,46.9 -128.1,46.3 -128.1,45.7 -129.5,44.4 -129.9,42.3 -131.6,41.1 -135.8,42 -135.9,41.5 
		-138.4,39.3 -139,40.2 -140.1,40.5 -140.6,40.4 -142.8,41.1 -144,40.9 -144.6,41 -146.1,42.2 -146.8,44.3 -146.7,45.1 -147,45.5 
		-148.6,45.7 -149.3,46.2 -149.2,47 -148.8,47.3 -146.3,47.7 -145.6,48.2 -146.4,49.3 -148,49.7 -148.9,50.5 -148.8,52 -149,52.7 
		-149.4,51.8 -150.1,51.3 -151.5,51.2 -152.4,51.5 -153,52.2 -153.5,51.8 -153.6,50.9 -154.9,50.6 -155.6,50.1 -159.1,50.3 
		-159.3,51 -158.9,52.9 -160.2,53.9 -156.7,56.3 -159.4,57.2 -159.3,58.7 -160.3,58.8 -160.8,59.3 -161.5,60.8 -157.9,62.1 
		-158.2,63.1 -157.7,63.5 -155.6,63.8 -153.9,63.5 -153.2,63.9 -153.1,64.4 -153.9,65.2 -154.9,64.9 -155.7,65.4 -157,67 
		-156.9,67.5 -159.1,69.9 -159.3,70.8 -158.2,71.1 -157.8,71.6 -159.4,71.9 -160.7,73.6 -160.7,74.6 -161.5,75.9 -162.9,74.8 
		-165,75.1 -165.8,75.8 -164.8,76.6 -161.4,76.7 -161.7,77.7 -164.5,78.2 -165.7,79.7 -164.6,80.4 -164.2,81.2 -163.9,80.8 
		-161.2,80.4 -160.8,80.7 -161.9,81.6 -163,81.8 -164,83.1 -163,83.4 -160.8,83 -160.1,82.2 -159.5,82.1 -159.4,82.5 -160,83.3 
		-160.8,83.6 -161.7,84.8 -161.1,85.3 	"/>
	<polygon fill="url(#Grid_1_pica_Lines)" points="-127.9,22.4 -128.3,22.9 -127.6,23.4 -127.4,24.2 -128.2,24.2 -128.8,23.7 
		-129.6,24.7 -129.5,25.3 -129.1,25.9 -129,26.6 -129.2,27.3 -129.9,27.8 -130.1,28.1 -129.5,28.4 -125.9,27.9 -125.9,25.9 
		-125.3,25.8 -123.5,23.7 -123.3,26.4 -124.2,26.9 -125.6,29.8 -125.5,30.6 -126,31.3 -125.9,33.3 -125.7,33.8 -125.7,35.1 
		-126.6,36.7 -126.7,37.6 -127.6,39.4 -127.7,40.5 -126.3,40.4 -125.8,39.7 -125.6,38.8 -125.7,38.1 -125.2,37.2 -125.4,36.3 
		-124.3,34.8 -124.4,34.2 -124.9,33.1 -124.4,32.3 -123.7,32.7 -123.5,33.4 -123,33.8 -122.9,34.2 -122.3,35 -120.5,31.2 -120.6,32 
		-120.4,32.5 -119.3,33.3 -120.1,33.4 -120.9,34.4 -121.1,35.3 -121,35.9 -119.7,37.8 -119.6,38.6 -119.7,39.1 -119.9,39.5 
		-120.5,39.9 -123.4,45.2 -123.2,47.2 -122.1,46.9 -121.9,46.7 -120.7,46.8 -118.6,48.6 -117.9,48.6 -118,47.8 -118.2,47.7 
		-118.3,46.6 -116.1,47.6 -115.7,48.2 -115.2,48.1 -113.8,47.1 -113.3,47 -112.5,46.6 -112.2,45.7 -111.5,45.5 -110.6,45.7 
		-110.3,46.3 -111.3,47.8 -111.3,48.3 -111.6,49 -112.9,50.2 -112.8,51 -111.8,52.2 -111.4,54.5 -110.5,55.3 -109.9,56.3 
		-109.4,56.3 -109,55.5 -108.3,55.7 -106.9,56.7 -107.5,57.6 -107.6,58.1 -108.1,58.4 -108.8,59.3 -109.1,60.2 -108.5,61.3 
		-108.6,61.6 -108.8,62.4 -109.6,63.8 -108.8,65.2 -108,65.8 -108.5,65.9 -110,65.4 -109.7,66.6 -110.1,66.7 -110.9,66.1 
		-117.2,67.1 -118.8,68.7 -119,69.4 -122,72.1 -121.3,72.3 -119.8,71.8 -119.2,71.1 -118.2,71 -117.6,71.4 -117.2,77.5 -118,78.5 
		-119.9,79.3 -120.4,80 -121.5,80.1 -123.9,81.7 -125.9,82 -126.4,82.7 -126.3,83.4 -125.8,83.8 -125.7,84.4 -126.1,85 -126.1,85.3 
		-125.6,85.7 -126,86.2 -124.2,86.4 -122.5,86 -122.2,85.5 -121.2,85.4 -120.7,84.8 -120.3,85.1 -119.3,86.4 -118.4,86.3 
		-118.3,86.8 -119.5,86.9 -119.9,87.5 -119.2,88 -118,87.8 -117.3,87 -116.4,86.8 -115.6,87.4 -115.6,88 -115.3,88.3 -115.2,88.8 
		-113.9,89.8 -112.6,90.2 -110.9,90 -110.6,89.6 -110.6,88.9 -110.1,88.3 -108.7,88 -106.9,87.2 -106.4,86.5 -105,85.7 -110,91.6 
		-110.2,92.1 -110.4,92.4 -112.7,92.6 -113.7,91.6 -114.3,91.8 -115.3,91.6 -118.7,92.1 -119.6,94.2 -120.5,94.7 -121.2,94.2 
		-122,95.6 -121.9,96.6 -124.4,99.4 -125.3,99.5 -127.9,102.8 -129.8,104 -130.7,104.2 -131.7,104.6 -131.9,105.7 -130.4,105.7 
		-129.9,105 -129.2,104.9 -128.2,105.5 -128.1,106.4 -128.4,106.5 -127.8,107 -127.2,106.9 -126.7,106 -126.8,105.5 -125.4,104.2 
		-124.5,104 -124.6,103.6 -124.2,102.9 -119.7,102.2 -119.4,101.6 -118.8,102.1 -118.5,103 -118.1,102.9 -117.7,103.7 -116.6,104.5 
		-115.7,104.7 -115.7,104.1 -114.8,103.4 -114.2,102.7 -114.1,102 -114.2,101.5 -113.9,100 -110.9,98.5 -107.8,98.7 -106.3,99.8 
		-101.4,99.4 -101.7,98.4 -97.4,97.7 -97.4,97.2 -97.1,96.7 -93.9,97.4 -93.3,97.9 -82.4,97.5 -80.3,96.1 -79.5,96.1 -79,95.6 
		-79.1,95 -77.6,94.1 -76.5,93.8 -75.5,93.2 -75.7,91.8 -75.4,90.4 -76,90.1 -77.6,90 -77.8,90.3 -81.8,89.9 -82.4,89.5 -82.6,89.1 
		-82.5,88.9 -79.6,88.2 -79.3,87.7 -79.2,86.8 -79.7,86.4 -80.8,86.1 -80.3,86.1 -79.8,85.3 -78.9,85.3 -78.3,85.4 -78,85 
		-76.9,84.9 -76.6,84.1 -77.3,83.9 -78.1,83.3 -76,82.7 -74.6,81.4 -73.2,76.7 -73.6,75.6 -73.4,74.4 -75.2,72.4 -80.8,70.7 
		-82.8,71.3 -83.3,72.5 -83.9,73.1 -85,73.1 -85.1,72.8 -85.1,72.1 -85.7,71.1 -85.7,70.6 -84.1,69.5 -85,65.6 -85.8,64.6 -87,63.9 
		-88,56.4 -89.6,55 -90.3,53.6 -90.4,53 -90.3,52.4 -92,51.1 -95.2,50.1 -95.7,49.7 -97,44.5 -97.8,43.9 -98.4,41.6 -98.1,40.3 
		-98.4,39 -104.8,32.9 -108,33.6 -110.3,33.3 -110,32.9 -108.6,32.6 -108.5,31.8 -106.9,30.8 -105.9,30.6 -105.4,30.1 -105,28.7 
		-108.4,28.3 -105.7,26.9 -105,26.8 -102.4,23.3 -102.2,22.1 -101.3,20.8 -100.5,17.5 -99.4,15.7 -99.2,15.1 -98.7,14.4 -101,11.8 
		-101.7,11.9 -102.6,12.4 -106.2,12.2 -106.9,12.5 -109.9,12.1 -111.5,12.8 -112.1,13.4 -113.3,13.7 -113.7,13.3 -113.4,12.2 
		-113.5,11.9 -112.6,10.7 -115,9.6 -114.5,9.6 -112.1,7.6 -111.1,7.3 -107.8,3.9 -107.3,2.7 -107.6,2 -107.1,1 -107.6,0.3 
		-115.6,1.8 -116.5,1.1 -117.7,1.3 -118.2,1 -118.9,0.8 -119.6,0.3 -119.9,0.8 -120.4,3.4 -120.8,4.1 -121.6,4.4 -122.2,6.2 
		-123,7.3 -121.4,8.7 -122.5,9.2 -124.2,9.3 -124.6,9.1 -125.6,9.4 -125.4,11.2 -125.8,11.7 -125.2,12.6 -125.3,13.2 -125.9,13.7 
		-126.1,14.7 -125.5,15.4 -125.4,15.9 -125.9,16.8 -125.3,18.6 -126.4,19.8 -126.3,21.8 -126.8,22.5 	"/>
	<polygon fill="url(#Grid_1_pica_Lines)" points="121.7,246.8 120.5,247.9 119.9,247.2 120,246.4 112.5,245.5 111.3,246.5 
		106.6,246.7 105.3,245.1 103,245.5 102,244.4 101.9,245.6 100.8,245.6 100.5,248.3 110.6,249.4 112.4,251.6 114,250.4 117.6,250.3 
		119.2,249 123.3,249 124.8,247.8 124.9,247.1 	"/>
	<path fill="url(#Grid_1_pica_Lines)" d="M119.4,192.2h-0.3l1.2-0.2L119.4,192.2L119.4,192.2z M110.9,190.8l2.4,1L110.9,190.8
		L110.9,190.8z M94.7,192.3v-0.5l0,1.2L94.7,192.3L94.7,192.3z M89,193.2l1.8,0.4L89,193.2L89,193.2z M-16.5,56.5l1.6,0.2
		L-16.5,56.5L-16.5,56.5z M121.6,20.5l-3-1.8L121.6,20.5L121.6,20.5z M42.3,137.4l-0.4-0.4v-0.5v0.5L42.3,137.4L42.3,137.4z
		 M49.4,128.2l-0.5,0.6L49.4,128.2L49.4,128.2z M71,144h-0.6l1.3,0L71,144L71,144z M231.8,110.1l-1.9-0.3l-4.8-3l-1.4,0.6l-4.3-2.2
		l-3.4,0.7l-5.4-5.1l-0.8,0.7l-6.7,1l-1.6-0.6l-1.3-1.1l-0.6-0.1l-1.8,0.5l-2-0.9l-0.5-0.8l-0.2-2.6l-1.2-2.8l-1.8-1.3l-5.5-0.6
		l-0.3-1l0-0.8l-0.6-0.6l-0.5-1.8l1.2-1.2l0.3-0.9l-2-2.3l-0.5-1.3l-1.3-1.2l-6-0.4l-1.7,1.2H174l-0.3-0.3l-1.6-0.5l-1.6,2.3
		l-2.4,0.6l-1.2-0.5h-1.1l0.3-0.9v-1l-0.9-1.9l-0.5-3.8l-1.5-2.3l0.7-1.5l6.5,0.2l1.4-0.5l1.5-1.5v-0.8l-2-3.5l-1.3-0.7L167,65
		l-0.3-0.8l0.6-1.3l-0.1-1.2h-1l-2-1l-2.4-3.5l-0.3-1.3l-2-1.8l-0.4-2l1.4-2.1l-1.3-1.4l0-2.9l-1.5-2l-2.1-1.4l-4.8,0.1l-0.8,0.8
		l-2.3,0.3l-0.3-0.3l-0.3-2.3l-0.4-0.6l-4,0.5l-1-1h-2.1l-1.5-1l0.1-2.9l-0.3-0.8l-0.5-0.5l-0.3-0.9l-1.4-1.5l-0.2-1L135,31l-1,0.1
		v-0.7l0.8-0.9l0.2-4l-2.6-2.7l-2.9-0.1l2.9,0.1l0-2.1l1.9-1.9l0.2-1.5l-1.7-1.7l0.4-5.6l-0.6-1.3v-1l0.6-0.9h0.5l0.9-0.7l0.4-0.9
		l0.7-0.7l-0.3-1.1l1.5-1.2h1.4l-0.2-1.2l-1.1-1.2l-0.4,0.4L134.6,1l-5.2-0.1l-2.2-1l-2.4-0.1l-0.6-0.3l-4.3-0.4l-1,0.4h-1L117.2-1
		l-1,1.3h-4.7l-0.7,0.7h-2.7L107,1.3l-0.5,1l-5,1.9L101,4.6v1.4l0.8,0.8l-0.5,0.5l0.2,4.5l1.2,1.9l1.1,0.4h1.3l0.6,0.6l2.4-1.2
		l1.2,1.4v0.8l-1.3,1.9v1.3l0.7,0.2h-0.8l-0.1,2.8l0.8,1.3l-0.1,2l-1.4,1.8l-3.7,2.1l-2.7-0.3l-7.8-8.3l-0.3,0.3h-1l-1,0.5l-1.1,0.1
		l-0.8,0.8l-1.8,0.2L84.1,26v1.8l-0.6,1.3l-2.4,2.3l-0.6,1.8l1.3,10.3l0.5,0.5l0.4,1.7l-0.2,0.8l0.4,0.4l0.1,1.2l-1.2,0.2l-1,1
		l0,1.8l-0.3,0.7L79,52.3l-5.1,0.1l-0.2,0.7l0.8,2.5l-1.2,0.5h-1.1l-2.6,2.6l-5.9-0.3l-1.2-0.5l-1.1-1.1l-0.6-1.4v-0.8L60,53.8
		l-5.7-0.1l-11.9,5l-0.6,0.5h-1l-0.5,0.5l-6.3,1.3l-0.5,0.5l-2.7,1.1l-0.5,0.5h-1L27.6,65h-0.7l-0.7-0.7L25.6,63l-1.2-1.2h-2.9l-1-1
		h-1.9l-2.3-2.3L13,59.1L11,61.3l-0.8-0.3l-1,0.3l-0.6,0.5l-1.1-0.7l-1.2,1.1l0.1,0.1l-0.3,0.5l-1.4,1H4l-1,0.5H1.9l-0.5,0.5v0.7
		H0.5v0.9h-0.6l-0.5-0.5l-1.5,0l-0.8,0.7l-0.8-0.9l1.6-1.4l0.3-0.7v-0.7l-0.4-1l-0.9,0.8l-1.2,0l-0.6-0.5l-1.5-0.6h-0.8l-0.3,0.2
		L-8.1,61h-1.7l-0.5-2.7l-0.3-0.2l-0.2-0.5l0-0.5l-0.1-0.1l0-0.5l0.1-0.1l0.5-0.1v0.2l-0.3,0.2l0.2,0.1l0,0.4l0.6,0.1l0.1,0.2
		l0.1,0.1l0.2-0.2l-0.1-0.3L-9.5,57l0-0.2l0.1,0l0.1,0.1l0.2-0.2l0-0.3l0.2,0.2l0,0.2h0.5l0.1-0.1h0.1l0.1,0.1h-0.2l-0.2,0.2
		l0.2,0.2h0.1l0.1,0.1l0.3-0.1l0.1-0.1h0.1l0.5-0.2l0-0.1l-0.2-0.9l-1.8-1.4l-1-0.1l-0.2,0.2l0.1,0.1h0.2l-0.3,0.2l1.1,0.5l0.1,0.2
		l0.2,0.1l0.4,0.3l-0.3,0.2l-0.3-0.4l-0.3-0.1v0.3l-0.2,0v-0.4l-0.2-0.1l0-0.1l-0.3,0l-0.2-0.2h-0.2l-0.3-0.3l0.1-0.1l-0.3-0.2
		L-11,55h-0.3l-0.3,0.1h-0.3l0.3-0.3l0.3,0l0.1,0l0.1-0.1l-0.1-0.3V54l-0.2-0.2h-0.2v0l0.3,0l0.2-0.2l-0.3,0l0.6-0.5l0.4,0.1
		l0.4-0.4l0.1-0.3l0.1,0l-0.1-0.2V52l-0.3-0.2h-0.2l-0.1-0.1l0.2-0.3l-0.1-0.1l-0.2-1.6h0.2l0.2-0.2v-0.3l-0.2-0.2l-0.1,0.1h-0.8V49
		l0.4-0.1v-0.1l0.2-0.1l0.5,0.2l0.2-0.2l0.5,0.5l0.2,0l0.4,0.5h-0.2l-0.2-0.2l-0.2,0v0.1l0.4,0.3h0.2l0,0l-0.1,0.1l0.1,0l0.1,0.1
		v0.1l-0.3,0.2l0.4,0.3l0.4,0.1v0.5l0.1,0.2l0,0.1l0.1,0.4l0,0.1l0.2,0.2l0.4,0.1v0.6l0.1,0.3v0.4l0.2,0v-0.4l-0.1-0.1l-0.1-0.3
		l0.1-0.1l0.3,0.2l0.3,0l0.3-0.1l0.1,0.1v0.2l0.2,0.2l0,0.4l-0.1,0.1l-0.3,0L-7,54.1l0.1,0l0.7,0.1l0,0.2h0.2l0-0.1l0-0.2l0.1-0.1
		l0.3,0.3l0.1,0h0.2l0.3,0.3h0.4l0.2,0.1H-4l0.3,0.1h0.4l0.4-0.3l1,0l0.2-0.3v-0.3l0.3-0.7v-1.4l-0.1-0.3l0.1-0.1h0.3l-0.3-0.9
		l-0.7-0.8l-0.1-0.5l0.1-0.1l0.2,0l0-0.1l-0.5-0.4v-0.3l-0.5-0.8l0,0.1v0.3l-0.1,0.1l0.2,0.1v0.4l-0.2,0l-0.1,0.1l0.3,0.2l-0.1,0.1
		l0,0.2l-0.4,0l-0.2,0.1l-0.2,0l-0.1,0.3h-0.3l-0.2-0.2v-0.3L-4,49l0.2-0.2h-0.1l0-0.1l0-0.2l0.3-0.2h-0.3l-0.2-0.2h-0.2L-4.4,48
		l-0.1-0.3l-0.2-0.1h-0.3l-0.5-0.3l0,0.1v0.3h-0.2v-0.2l-0.2,0l-2.3,1.1l-0.1,0.2l-0.5,0l-0.3-0.4l-0.1,0.1l-0.5-0.1l0-0.3l0.1-0.2
		l0.6-0.3v-0.1l-0.1-0.1l-0.4-0.1l-0.5,0l-0.2-0.3l-0.7-0.5H-11l-0.1-0.2h0.7l1.3,0.5l1.4-0.5l0-0.2l0.4-0.3l0-0.1l-0.3-0.1l0.2-0.5
		v-0.2l0-0.1l-0.6,0l-0.4-0.2h-0.2v-0.2l1,0.1l0.1-0.1h-0.4l0-0.1l0.2-0.2H-7l0.2,0.1l0,0.2l0.1,0.2l0.3,0.1v-0.1l0.1-0.1l-0.3-0.3
		l0.4-0.4l0.2-0.4v-0.3L-6,42.6l0.2-0.4V42l-0.3,0l0.4-0.3l-0.4-1.1L-6,40l0.6-0.8l0.2-0.5l0.3,0l0.5,0.2V39l-0.2,0.3l0,0.3l-0.2,0
		l0-0.1l-0.3,0.1l0,0.5l0.3,0.3h0.1l0.1-0.2l0.1-0.1l0.7,0l0.1-0.1l0.1-0.3l0.2-0.2l0.5,0l0.1,0.1L-3,39.7v0.2L-3.2,40l0.4,0.4h0.2
		l0.1,0l0.1-0.2l0-0.3l0.1-0.5l0.8-1.2l0.3-0.2l0-0.8l0.5-0.6l-0.8-0.6l-0.1-0.3L-2,35.5l-0.1-0.1l-1.3,0.2l-0.2,0.2l-0.7,0
		l-0.9-0.4h-0.2l-0.2-0.3v-0.2l-0.1-0.1L-5.9,35l-0.3,0.1l-0.1,0.1l0,0.1L-6.4,36l-0.1-0.4l0.1-0.5l0.8-0.9l0-0.2l-0.6-0.5l-0.2,0
		l-0.3-0.1l0.6,0l0.1,0.1l0.2-0.3l-0.1-0.4L-6,32.7l-0.1-0.3l-0.2-0.2l0.2-2.6l0.3-0.1l0.8-2.5l0.5-0.4l-0.1-2.8l0.2-0.3l-0.9-0.8
		l-0.1-0.9l0.2-0.8l0.5-0.5l0.3-0.1L-4,20l-0.1-0.2l-0.8,0.3l-1.3,1.3l-0.5,0.2l-0.2,0.2l-2,0.2l-2.9,4.8l-1,0.8l-1.5,0.4l-1.3-0.3
		l-0.9,0.3l-0.2,0.3l-1.5,0.2l-0.4-0.1l-0.5,0.4l-0.2,0.2l0,0.2l-2.1,3.2l0,0.9l0.2,0.2h0.1l-0.1-0.8l0.5,0.4v0.6l1,0.7l0.1,0.2
		l0.3,0.2l0.2,0.4l0.3-0.1l0.2-0.1l0-0.4l-0.1-0.1l-0.1-0.3v-0.2h-0.1l-0.3,0.2l-0.1,0l0.3-0.3l-0.3-0.2l0-0.6l-0.1-0.2l0.1-0.1
		v-0.3l0.1-0.1l0.1,0l0.1-0.2l0.2-0.2l0.3-0.1l0.1-0.2v-0.1l0.1-0.3l-0.2-0.1l0.5-0.6l0.7,0l0.3-0.5v-0.2l0.2,0.2l0.2-0.2v-0.3
		l0.2,0.1l0.1,0.2h0.2l0.2-0.2l0.8,0l0.4-0.3l-0.1-0.2l-0.3-0.3l-0.1-0.4l0.2,0.3l0.4,0.2l0.2,0.3l0.2,0.1l0,0.2l0.5,0.3l0.3,0.1
		l0.2-0.3l0.9-0.4h0.1l0.3-0.2l0.3,0v0.2l0.5-0.2l0.1-0.1h0.7l0.7-0.3l0.1-0.1h0.2l0.3,0.1l0.5,0.4H-9l-0.3,0.1l-0.2,0.1h-1.1
		l-0.2,0.2l-0.1,0.4l-0.2,0.1l-0.1,0.1l0,0.2l-0.2,0.2l0,0.3l-0.3-0.3v-0.1l0.2-0.2v-0.2l-0.8-0.2l-1.2,0.2l-0.3,0.5l0,0.1l-0.4,0.3
		l-0.1,0.5l0.4,0.3v0.3l-0.2,0.1v0.4l0.1,0.3h0.1l0.3,0.2l0,0.2l0,0.3l-0.4,0.5l-0.1,0.2v0.2l0.2-0.3l0.3-0.2h0.4l0.1,0.1l0,0.8
		l-0.2,0.4v0.2l0.3,0.1h0.4v0.2h-0.2l-0.3,0.1h-0.1l-0.1-0.1l-0.1-0.1V35l0.1-0.3l-0.2-0.2l-0.1,0l-0.2,0.2l-0.5,0l-0.4,0.4
		l-0.1,0.3H-15v-0.3l-0.2-0.1l0.2-0.4l0-0.1l0.3-0.2l0.1-0.3v-0.3l0.2-0.2l-0.2-0.8l-0.1-0.1l0-0.2l-0.2-0.2l-0.4,0.1l-0.4-0.1
		l-0.7,0.8l-0.1,0.3l0.4,0.1l0.1,0.1l-0.8,0.3l-0.4,0.7l-0.3,0.1h-0.1l0.1,0.5l0.1,0.2l0.2,0.1l0.1,0.7l-0.2,0.2l-0.8-0.2l0.3,0.1
		h-0.2l-0.2-0.2v-0.3l-0.2-0.2l0-0.1l0-0.2h-0.2l-0.1,0.2h-0.2l-0.7-0.3h-0.7l-0.1,0.2h-0.1l0-0.3l-0.4-0.3l0.1-0.1l-0.3-0.1l0-0.2
		l0.1-0.1l0-0.6l-0.4,0.6l0,0.5l-0.2,0.4l0,2.2l0.2,0.1v-0.3l0.1-0.2l0.5,0.4l-0.3,0l-0.1,0.1l1,0.9l0,0.1l-0.3,0.3l0-0.1v-0.2
		l-0.4,0l-0.2-0.2l-0.3-0.2l0,4.3l0.2,0.2l0.1-0.1l-0.2-1.3l1.2,0.7l0.3,0.3l0,0.5l0.1,0.3l0.3,0.3l0,0.3l-0.1,0.2l-0.8,0.8
		l-0.4,0.2h-0.2l0-0.4l-0.2-0.1l-0.2-1.3l0.1,3.5l-0.1,0.3l-0.3,0.4l0,0.8l-0.3,0.3l0.3,0.2h0.3l1.2,1l0.1-0.2l-0.2-0.4l-0.7-0.5
		l0.3-0.3l0.5,0l-0.1,0.1l0.2,0.2v0.3l1.4,1h0.1l0.3,0.3h0.3l0.3,0.5l0.2,2l0.3,0.6l-0.3,2.6l0.3,0.3v1.9l1,0.9l0.5,1l0.4,0.4v0.9
		l-0.7,0.7h-0.9l-0.6,1.2h1v1.4l0.6,0.5h0.8l-0.3,1h-0.5v0.5l0.4,0.6l0.8,0.6h-1.8l-0.3-0.3l-0.9-0.1v0.4l-0.8,0.5l0.2,3.9l-0.8-1.5
		l-0.6-0.6h-0.6v1.6l0.4,0.4l-0.7,0.1l-0.9-0.8l0.1-1l-0.3-1l-0.3-0.3l-5,0.4l-0.8,0.7v0.7l-0.6,0.5l0.3,1l0.4,0.4h0.6l0.5,0.5
		l-0.9,0.4l-0.5-0.4l-0.3,0l-0.1-0.1l-0.3,0l-0.1-0.3l-0.1-0.1l0-0.1l-0.9-0.3v0l-0.2-0.1v-0.1l-0.2-0.6l0.1-0.2l-0.3-0.2l0-0.1
		h-0.3l-0.2-0.1l-0.6,0.1l-0.3,0.2l-1.5,0.2l-0.5,0.2l-0.1,0.2l-0.2-0.2l-0.1-0.1h-0.4v0.2h0l0,0H-35l0,0l0,0.1l0.1,0h0.2l0.1,0.1
		l-0.1,0.1l0-0.1v-0.1h-0.3l0-0.1v-0.2l0.1-0.1h-1.3l-2.5,0.9l-1.4,1l-0.2,0.8l-0.2,0.3l0.1,0.2v0.1h-0.1v0.1l0.1,0.3l0.1,0.1l0,0.1
		l0.1,0.5l-0.1,0.4l0.1,0.2l-0.3,0l-0.2,0.2l0.4,0.3l0.3,0l0.1,0h0.1l0.4,0.2h0.3l0.1-0.1l0.4-0.1l0.1,0.1V77h0.3l0.1,0.1h-0.2
		l-0.2,0.1l-0.4,0.6l-0.1,1l0,0.2l0.3,0.4l1.1,0.1l0.7-0.2h0.2l0.2-0.1l0.1-0.1h0.3l0.1,0.1l-1.2,0.3l-0.1,0.3l0.1,0.2l0,0.6
		l-0.4,0.7l-0.4,0.2l-0.2,0.3l-0.2,0.1l-0.4,0.1l-0.5,0.3l0,0.1v0.1l-0.3,0.3l-0.2,0.1h-0.2l-0.2,0.1h-0.2l0,0l-0.1,0l-0.2-0.2h-0.2
		l-0.3-0.3h-0.7l-0.5-0.3h-0.3v-0.3l-0.4-0.1l-0.2-0.2l0.6,0l0.5-0.6l-0.2-0.1l0-0.1v-0.2l0-0.1l0.1-0.1v-0.2L-43,80v-0.4l-0.2-0.2
		l0-0.3l0.1-0.2l0.9,0.2l0.3-0.2h0.2l0.1-0.1v-0.2l0.1-0.1h0.2l0.2-0.3v-0.2l-0.4-0.3l-0.5,0.1l-0.2,0.2l-0.1-0.1l-0.1-1.2l-0.3-0.6
		l0.1-0.2l-0.5-0.2l-0.6,0.5v0.1l0.1,0.3l-0.3-0.1l-0.2-0.2h-0.1l-0.3-0.3l0.2-0.4l-0.4-0.1l-0.3,0.1l-1.2,4.7l0.5,0.2l-0.4,0
		l-0.2,0.1l-1.3,2.5l-1.7,1.7V85l-0.3,0.2l0.4,0.5h0.2l0.5,0.4h-0.5l-0.3-0.3h-0.2l-0.4-0.4h-0.3l-0.1,0.1l0,1l0.2,0.2h0.1l0.5,0.4
		h0.2l0.6,0.5h0.3l0.2,0.2l1,0.4h0.6l0.5-0.5l0.1,0.1h0.1l0.1,0h0.2l0.2-0.1l0,0l0.2-0.1h0.2v0.1l0.3,0V88l-0.1,0.1h-0.4l-0.1-0.1
		h-0.3l-0.1,0.1H-46l-0.1,0l-0.3,0l-0.5,0.3h-0.3l-0.3-0.3l-1.2-0.2l-0.6-0.5v-0.1l-0.1,0l-0.5-0.4h-0.2l-0.2-0.2h-0.1l-0.2-0.2
		l-0.1,0.1h-0.3l-0.1,0.1h-0.3l-0.2,0.2v0.3h0.2l0.2-0.2l0.2,0l0.3,0l0.2,0.3v0.3l0.1,0.1l0.1,0.2l0.1,0.1h0.4l0.2,0.2h0.1l0.4,0.3
		h0.7l0.3-0.2l0.1,0.1l-0.2,0.2l-0.3,0.1l-0.1,0.1l-0.9,0l-0.1-0.1h-0.3v0.1l0.2,0.2h0.2l0.1,0.1h0.1v0.3l-0.1-0.1l-0.1-0.1h-0.4
		l-0.1-0.1h-0.1l-0.2,0.1l-0.1,0.1l-0.3,0l-0.1,0.1l0.3,0.3l0.1,0.2l0.2,0.2h0.5l0.2,0.2h0.3l0.1,0h0.2l0.2,0.2v0.3l-0.2,0.1l0,0.1
		l-1,0l-1-0.9h-0.3l-0.2-0.2h-1.1l-0.3,0.2l-0.5-0.4l0-0.2l0.4,0.4h0.1l0.1-0.1l0.8,0l0.3-0.2v-0.1l-0.2-0.2l-1.2,0l-0.2,0.1h-0.3
		l-0.1-0.1h-0.3l-0.1,0.1l-0.3,0.1l-0.3,0.3l-0.2,0l0,0.2l0.2,0.2v0.1l0.6,0.7l0.6,0l0.3-0.2v0.2l0.3,0.4h0.2l0.4,0.2l0.5-0.1
		l0.1-0.1l0-0.3l0.2-0.2l0.2,0l0.2,0l0.2,0.1l0.1,0.1h0.2l0.3,0.3l0.8,0l0.2,0.2l-0.1,0.1l-0.1,0.2v-0.2h-0.2l-0.1,0.1H-50l-0.1,0.1
		l-0.1-0.1l-0.1,0h-0.2l-0.3-0.4l-0.4,0v0.3l-0.4,0.1l-0.2,0.1h-0.5l-0.1-0.1h-0.3l-0.2,0.1l-0.5-0.5h-0.5l-0.3-0.3h-0.2l-0.4,0.2
		l-0.3,0l-0.6,0.3h-1.2l-0.4,0.4h-0.6l-2.1,1.4l-1.5,0.1l-0.5,0.5l-4.3,0.4l-1.1,0.6l-4.1,0.2l-2.2,1.8l-0.2,2.8l-0.6,0.7v1.8l1,1
		l-2.7,2.7h-2.8l-2,1.1h-0.9l-3.1,2.2v0.9l0.5,0.5h1.1v0.9h-1.3l-0.8,0.8l-9.1,0.1l-1-1l-1-2.3h-4.8l0.3,2.4l1.1,1.1v2.6l1.2,1.2
		v1.8l0.8,0.8l-0.8,0.8l-5.6,0.1l-0.8-0.8l-1.2,0.5l-0.8,0.8l-3.4-3h-1.2l-1.2,1.2l-0.8-0.8l-1.3,1.3l-6.4,0.2l-2.3,1.9v1.4h2.3
		l-0.2,3h-0.9v0.9h1.3l1.5,0.9v1.1h4.8l1.7,1.6h1.8l0.9,1.7h5l0.8,2l2-0.2l1.3,0.4l-1.5,1.5l0.2,1.8l3.1,4.4l3.7,1.1l1,1l-1.2,2.1
		l1.2,4l2.7,2.7l0.1,2.7l-0.9-0.9l-0.7-2l-0.8-0.8h-1.2l-1.1,14.1l-0.8,0.7l0.2,2.2l-3.2,4.2h-5.5l-0.9-0.9l-1.3-0.5h-1l-1.2,1
		l-2.4-0.3l-1.1-1.1l-28.4-0.5l-3-2.1l-3.8,0.2l-1.4,0.8v2.2l-0.8,0.5l-5.8,1l-2.1,2.4v0.5l1.1,1.3l1.5,0.8l0.4,0.8l0.2,8.4
		l-0.5,0.5l0.3,0.8v0.9l0.6,1.8v1.9l0.5,0.5l0.4,2.8l-0.7,0.7l0,2l-0.5,1.6v2l-1.3,1.3l-0.2,2.8l-1,1.1l-0.3,0.9l-1.1,1.1l0,0.8
		l-0.5,0.5l-0.5,3.9l0.5,0.5v0.7l1.2,0.2l2.1-2.1v0.8l-1.7,2.2v1.1l3,0.2l0.3-0.3l-0.6,0.6l0.6,0.6l-0.6,1.3l-0.2,5.7l0.5,1.3v1
		l-1.4,1.4l0.3,1.5l0.3-0.4l3.5-0.4l2.2,0.8h2.9l0.4-0.4l2-1l0.3-0.8h4.5l2.2,2.2l1.7,0.5l0.5,0.5v2l0.4,0.8l0.5,0.5l0.7,2.6l2,1.6
		l0.9,0.1l0.5,0.5h1l1.1-0.5l1.3-1.4v-1l1.7-1l3.2-0.1l1.2-1.7h0.5l0.5-0.5h4.1l0.9-0.4l4.1-0.2l0.5,0.5h2.1l1.4,0.5l1.4-1.4h0.5
		l2.2,0.7l2.2-2.2l0.6-2.8l3.4-2.4h2.8l1-0.4v-0.6l1.4-1.5l1.1-3.6l3.1-3.4h0.7l2.2-1.7l-3-3.8l-0.3-0.8l0.5-4.8l6.1-7.5l2.4-1.3
		l-0.5-0.5v-1.5l1.1-0.6l0.8-0.8l3.8-1.4h1.1l0.5-0.5h0.9l1.9-1.9h1.1l1.1-1.2l0.3-0.8l0-2l0.7-0.7v-0.9l0.5-0.5v-3.4l-0.3-0.2
		l0-2.2l-0.2-0.5l0.5-2.3l1.6-1.6l1-0.5l1.4-0.1l4.3-2.7l1,0.1v0.5l0.2,0.3l0,0.3l1.7,0l0.3,0.2l1,0l0.3,0.3l0.5,0.2l0.6,0.5h0.4
		l0.2-0.2l2.1-0.3l0.3-0.6l0.2-0.2h0.2l0.9,0.6v0.2l-0.3,0.2l-1.1,0.1v0.4l2.4,0.3l0.2,0.2v0.2l0.3,0.5l-0.1,0.2l0.5,0.2h0.2
		l1.3,0.5h0.6l0.1,0.4l1.5,0.6l0.3-0.1l1.6,0.2l0.2,0.1l0.4-0.3l3.7-0.6l0.4-1.3l0.6-0.7l1.9-1.1l0.2-0.4l0.3-0.2l0.4,0l0.3-0.3
		l0.9-0.4v-0.3l0.6-0.5l1-0.1l0.6-0.6l1.4,0.1l0.4-0.4l3.8-1.2l0.7-1.6l2.2-1.6v-1.1l2.6-2.6h3.1l2.2,1.6h2.5l5.3,2.8l1.1,5l1.6,2
		v2.1l2,2l0.3,0.9L15.8,191l1.9,0l1.4,1.4h3.6l5.8,5.7h2.3l4.1,5.5l2.2,1.1h1.1l1.1,0.9v2.8l2.4,0.8v3.5l1.3,1.3L42,215l-0.6,1.5
		h-1.3v1.9l-0.7,1.6l-1.6,1.6v1.2l4.2,0.7l3.8-4.8v-2.3l1.5-1.5l3.5-1.3l-0.5-3.7l-4.1-4.2v-1.9l3.3-3.4h1.2l1.3,1.3l3.5-0.4
		l1.5,1.6v1.6h3.3l0.5-2l-0.2-1.3l-12.4-7.7h-0.3l-7.3-3.3l0.9-1.9l1.4-1.4l-1.2-1.5l-9.2-0.4l-1.6-1.7l-3.9-1.5l-1.9-2l-0.6-5.4
		l-4.3-5.7l-2.2-1.1h-1l-4.8-5.2v-3.1l1.3-1.3v-1.8l-1-1l-0.7-1.8l-1.1-0.8l1.8-1.8l1.2,0.3l0.9-0.1l1.3-0.7h0.6l-0.3-0.6l0.4-0.4
		l2.2-0.3l0.7,0.3l0.5-0.1l0.3,0.7h0.3l0.5,1.1l1.1,0.8l-0.2,0.6l0,0.3l0.5,0.8l0,1.4l2.9,4.1l0.8-0.6l0.1-0.5l0-0.4l0.3-0.6
		l0.2-0.2l0.9-2.1v-1.2l0.7-0.3h0.3l1.3,0.7l0.4,0.6l1.8,1.3l0.2,0.6l0.3,0.3L33,160l2.6,3.4l0.1,1.3l1.7,1.5l0.3,0.6l4.2,2.5
		l0.1,1.2l0.4,0.5l1,0.5l0.3-0.4l1-0.5l5.7,1.1l12,8l0.3,0.9l6.5,6.8v2.2l-0.4,1.2v3.1l-0.8,2.1v4.1l5.3,4.7l0.3,1l0.6,0.6l0.6,2
		l2.4,2.1l1-0.1l2.2,0.7l0.4,0.6l-0.2,0.6l-3.1-1l0.7,1.7l0.9,0.8L80,216l0,0.6l0.3,0.6l0.6,0.5l0.5,0.1l0.5-0.3l0.1-0.3l0.8,1
		l0.9,0.2l0.6-0.4l1.1,0.2l0.6-0.3h0.5l0.2-0.1l1.4-0.3l5.2,1.4l3.6,2.5l-0.1,0.4l-0.9,0.3l-0.8-0.3l-0.5,0.3l0.1,0.4l-0.2,0.4
		l-0.3,0.2l-2.6-1.6l-0.2-0.3l-2.7-1l-0.7-0.7l-1.5-0.7l-1.3,0.4l-0.1,0.4l-0.5,0.1l-0.3,0.2l-1.1-0.1l-0.7-0.4l-0.5,1l-0.4,0.2
		l0,0.6l-0.4,0.5l-1.1,0.3l-0.2,0.7l1.7,1.4l0.1,0.5l1.1,0.8l1.4,2.3l-0.3,1l-0.8,0.8l-0.2,0.6l0,0.6l0.4,0.7l0.4,0.4l0,0.4
		l-0.2,0.5l0.2,0.4l-0.1,0.6l2,0.2l0.3-0.5l-0.2-0.9l0.1-0.5l0.4-0.3l0.6-0.3l0.5,0.2l0.2,0.3v0.5l1.9,2.9l-0.5,1.3l0.4,0.6l0.7,0.3
		l0.2-0.9l0-0.5l1.1-1.9l0.3-0.2l1.3,0.3l0,1l0.5,0.7l0.3,0.1l0.3,0.5l0.1,0.4l0.6,0.3l0.4,0.6l0.3,0.2l0.4-0.4l-1-2.2l0.5-1.3
		l-2.6-6.9l0.3-0.8l0.5,0.2l1,0.7l0.8,0.2l0.7,0.8l-0.2,0.7l0.2,0.5l1-0.5l0.3-0.3l0.3-0.1l1.1,0.1l0.3-0.2l0.2-0.5l-0.9-0.9
		l-0.1-0.4l-0.4,0.2l-0.8-0.1l-0.3-0.3l-0.8-2.2l-0.7-0.4l0.1-0.3l2.6-0.8l2.4,0.4l1.1,1.3l0.4,0.2l1.2,1.5l0.4,0.2l0.5-0.5l0.1-0.4
		l-0.6-3.4l0.4-0.5l0-0.4l-0.4-0.7l-1.2-0.2l-3.8-2.9l-0.2-0.5l-0.3-0.5l-0.7-0.2l-0.2,0.1l-0.7-0.2l-0.4-0.6l-3.2-1.3l-0.3-0.4
		l0.2-0.3l2.8,0.6l0.5-0.1l0.3-0.9l-0.5-0.8l-0.1-0.7l-0.9-1l0.1-0.5l0.8-0.5l0.1-0.2l0.5,0.1l1.1,1l0.2,0.3l0.4,0.4l0.9,0.2
		l-0.1-0.5l-5.9-8.9l1-1l0.1-1.3l0.5-0.5h0.5l1.1-0.8l1.2,2.8l0.8,0.8h0.7l0.7,1v0.5l1.3,1.6l0.4-0.5v-1l-0.5-0.5v-0.5l0.4-0.3
		l2.3,2.3h0.9l0.5-0.5l-1.5-1.5l-0.3-1l0.6-0.6l2.1,2.1l0.8-0.5v-0.8l-3.1-3.1l0.1-1.6l4.3,0.2l1.4-1.4h3.1l0.3-0.3h1.6l0.3-0.3
		l1.7,1.2l1.2-0.4h2.1l0.8,0.6h1.6v0.7l1.4-1.5l0.8-3.1l1.2-0.6l0.7-1.2l-1.7-3.5l1-1l4.6-1.6h0.9l0.6,0.6l4.6,0.5l0.6-0.6l-0.8-1.7
		l-1.4-1.4l-0.5-1.2l4.8-9.2l1.5,0.3l0.7-0.4l1.3-9.4l1.5-1.6l0.2-0.9l-0.2-0.9l0.8-0.8v-1.3l0.9,0.1l-0.2,1l3.8-0.3l1-1.2l-0.3-1.6
		l0.8-0.8l0.2-0.5l-0.6-1.8v-2h0.6l2.3-1.5l1.2-0.3l2.3-2.9h0.7l1.6-3.1l1.2-1.2l4.4-0.7l1.2,0.5h1.2l1.2-2.5l0.2-1.8l-1.5-1.7
		l0.3-1.2v0.9l1.9,1.6l0.2,3.8l0.5,0.8l2.1-0.1l0.9-0.5h1l-1.4,1.8h-3.4l-0.5,0.5l-0.1,1.1l-0.7,0.7l14.4,2.1l0.5,1l-0.6,0.6h-1.2
		l-7,4.6h1l5.8,2.9l0.6,0.8l-0.3,3.4l-1,1.1l1.5,0.6l0.7,0.9h2.8l4-2.9l0.7-1.2l3.3-0.3l2.7-1.6l0.3-0.6l1.9,0.3l1.3,0.6h2.4
		l1.9-1.1h1.2l1-1.6v-1.1l-2.8-1l-1.3,0.6l-3.3,0.1l-1.5,0.6l-1.4-0.3l-3.8-5.9V145l1.4-0.7l1.3-1.7l2.8-0.5l2.3-2.4l4.8-0.6
		l0.6-0.7l2.6,0.3l11.2-4.2l0.3-3.2l1-1.3l1.8-0.8l2-1.8l7.2-0.3l0.2-1.2l0.8-0.9l-0.6-4.3l-0.7-0.6l0-1l1-2.1l-0.6-1.6l1.4-1
		l0.6-1.3l0-1.6L231.8,110.1L231.8,110.1z"/>
	<polygon fill="url(#Grid_1_pica_Lines)" points="-43.3,-24 -41.2,-22.9 -40.3,-22.9 -41.6,-22.4 -43.7,-22.4 -45,-20.6 
		-29.1,-21.1 -27.2,-20.4 -26.3,-19.6 -27.4,-18.4 -28.8,-18.4 -29.7,-17.7 -30.8,-18.7 -40.9,-19.1 -44.2,-15.9 -43.6,-15.3 
		-42.4,-15.3 -42.4,-14.7 -40.9,-14.1 -41.8,-13.2 -41.2,-12.6 -40.4,-12.2 -41.6,-11 -42.7,-11 -44.9,-10.3 -44.9,-9.1 -43.9,-8.1 
		-43.3,-8.7 -41.1,-8.7 -39.9,-7.4 -38.2,-7.9 -35.6,-10.7 -34.3,-10.7 -32.9,-9.8 -33.5,-9.3 -34.2,-9.3 -34.7,-9.8 -36,-8.5 
		-36,-7.4 -38.1,-6.8 -40.2,-4.7 -39.3,-3.8 -38.3,-3.4 -36.6,-3.4 -37.4,-2.6 -38.3,-2.6 -40.7,-0.2 -41.8,-0.2 -44.1,0.9 
		-43.7,1.3 -43.7,2.3 -41.4,2.3 -39.6,1.6 -39.9,0.5 -36.7,0.4 -35.4,-0.9 -34.9,-0.4 -36.3,0.9 -36.7,2.2 -36,2.9 -36.9,2.9 
		-37.7,3.7 -38.1,5.5 -36.7,5.7 -36.1,5.1 -35.2,5.1 -37.1,7 -38.7,7 -40.1,5.6 -40.6,7.1 -41.5,8 -41.5,9.2 -39.2,11.6 -38.3,13.2 
		-36.1,13.2 -36.1,14.2 -34,15.2 -33.2,14.4 -31.8,14.4 -31.6,14.9 -33.1,16.6 -30.1,16.6 -29.4,17.3 -24,17.3 -23.3,16.6 -22,16.3 
		-21.5,15.8 -19.7,15.8 -18.1,14.2 -17.4,14.2 -15.9,12.6 -14.8,12.6 -13.9,11.7 -12.8,9.3 -11.3,7.8 -10.3,7.8 -9.3,6.8 -9.3,5.6 
		-8.6,4.9 -7.7,5.8 -7,5.8 -6.1,4.8 -5.2,4.8 -4.8,3.7 -2.8,1.6 -3.9,0.5 -3.9,-0.6 -2.7,-1.2 -2.7,-3.4 -1.6,-4.6 -0.9,-3.9 
		-0.9,-2.4 -1.6,-1.7 -1.6,-0.2 -0.7,0.7 -0.7,3.3 2.7,4 2.7,6.6 2.9,6.8 4.1,12.7 4.5,13.2 5.7,14.2 5.9,14.7 7.7,16.2 7.6,19.7 
		8.7,21.8 8.7,22.6 10.7,25.2 11.2,27.4 11.7,28.2 11.8,28.9 14.4,32 15.3,32.4 16.1,33.2 16.5,34.8 15.5,35.6 14.5,37.6 15,42.2 
		16.4,42.8 17.2,44 18.1,47 19.6,47.8 21.7,47.7 22.3,47.2 27.4,46.8 27.6,44.9 28,44.5 28,43.9 27.1,43 27.4,42.3 28.4,41.6 
		28.4,41.1 29.1,40.4 30.7,40.2 32,38.6 32.8,38.6 33.6,38.4 38.2,38.4 38.4,39.2 39.5,40.4 40.5,38.4 41.2,37.7 41.9,36.4 42,35.1 
		43.5,33.7 43.5,33 44.9,31.1 45,29.8 45.4,29.4 45.5,25.2 45.9,25.2 46.4,24.1 46.2,20 45.6,19 46.6,18.9 46.6,15.5 47.3,14.2 
		46.8,12.9 46.6,12.7 47.3,12.1 47.5,11.4 46.6,10.6 48.7,10.3 50,9 51.1,9.2 53,8.7 54.4,7.1 54.2,6.3 54.4,6.1 55,6.3 55.5,7 
		55.5,7.7 59.9,3.6 58.6,2.3 58.4,1.3 59.2,1.3 59.2,2.5 60.4,3.2 61.6,3 61.1,1.9 60.1,1.2 60.1,0.8 61.7,-1.1 63.1,-1.3 65,-4.4 
		63.4,-6.5 62.2,-7 60,-9.3 60.1,-10 58.1,-10.9 57.1,-12 56.1,-12 53.3,-14 50.8,-14.3 50.8,-20.6 50.5,-21.4 50.6,-25.8 
		52.2,-27.9 51.9,-28.9 52.6,-29.5 52.6,-30.4 53.4,-31.2 53.4,-32.5 53.9,-33.5 52.7,-34.3 53.1,-36.5 55.6,-36.8 56.4,-37.2 
		56.9,-40.8 56.4,-41.9 57.8,-40.4 59.7,-41 60.9,-42.6 62,-43.1 62.4,-44 63.5,-45.2 66.1,-45.7 70.8,-49.4 71.5,-49.4 72.8,-50.4 
		73.9,-50.7 75.4,-52 77.7,-52.9 78.9,-52.9 79,-53.6 80.1,-54.7 80.1,-55.3 85.2,-61 85.2,-61.5 85,-62.3 83.1,-64.2 82.6,-65.5 
		83,-65.5 83.5,-66.6 85.2,-68.1 85.6,-70.2 86.2,-70.8 86.4,-71.9 86.1,-72.4 86.7,-73 87.9,-73 88.9,-74 88.9,-74.8 89.5,-75.4 
		90.6,-75.4 91.5,-75.9 91.5,-76.6 92.1,-78 94.3,-77.8 94.3,-78.3 95,-78.8 95.6,-78.8 96.2,-78.1 97.3,-77.6 108.6,-78.2 
		109.8,-77 110.8,-77 111.4,-76.4 112.1,-76.5 113.5,-75 114.9,-74.6 115.2,-72.3 114.7,-70.7 115,-69.3 116,-68.3 116,-67.7 
		115.4,-66.9 115.3,-66.2 111.5,-66.2 111,-65.7 110.3,-65.3 101.6,-55.9 100.5,-55.6 100.1,-55.2 100,-54.4 99.4,-53.8 98.5,-53.9 
		97.3,-53.3 96.1,-51 94.1,-50.5 93.5,-50.9 92.1,-49.1 92.1,-46.5 91.6,-46.1 90.6,-45.6 85.9,-45.6 85.3,-44.5 84.9,-41.9 
		83.8,-41.5 82.8,-39.8 82.8,-34.8 83.6,-34.3 83.6,-33.7 83.9,-33 83.9,-29 85,-28.1 85.9,-24.8 85.4,-24.3 85.7,-22.3 85.2,-21.8 
		85.3,-20 84.7,-19.4 84.1,-15.5 84.4,-14.1 85,-13.5 86.9,-12.6 87.8,-11.7 89.9,-11.7 90.3,-11.3 93.1,-10.4 93.5,-10 93,-8.5 
		96.2,-8.8 96.2,-8.5 96.6,-8.1 96.6,-7.6 98.4,-5.8 109.4,-6.4 109.4,-7 111.4,-8.3 113.8,-8.1 118.5,-10.1 119.1,-9.8 121.1,-10 
		121.3,-10.3 122,-10.3 124.9,-11.7 126,-11.3 135.5,-11.8 162.8,-37.4 164.4,-41.2 164.4,-42.3 152.4,-51.8 155.1,-53.6 
		156.7,-56.4 156.8,-57.3 152.6,-61 152.6,-62.8 153.1,-63.5 153.1,-64.4 150.2,-66.3 149.3,-68 150.6,-69.4 150.6,-70.2 
		150.2,-70.6 151.1,-76.6 153.5,-76.8 153.5,-79.2 145.2,-92.5 145.3,-93.3 151.7,-101.7 152.2,-102.9 152.1,-103.5 145.9,-109.4 
		144.1,-109.8 141.5,-112.5 140.7,-114.2 140.7,-115.4 142.2,-116.9 142,-119.7 141.5,-120.3 142.1,-121.2 143.1,-121.2 
		143.8,-122.5 145.6,-122.5 147.5,-124.4 148.3,-126.3 149.4,-126.3 149.8,-126.8 151.7,-126.8 154.2,-129.8 155.3,-130.5 
		157.1,-129.1 159.1,-129.1 159.6,-129.6 159.3,-131.3 160.3,-132.3 159.2,-133.4 158.4,-132.6 156.7,-132.2 155.5,-133.6 
		154.5,-132.6 150.7,-132.6 150.7,-133.6 149,-135.4 148,-135.4 146.8,-136.5 145.7,-136.6 143.6,-137.6 145.4,-138.1 147.2,-137.3 
		154.4,-137.3 157.1,-139.8 158.5,-139.8 160.2,-140.4 160.9,-140.4 159.9,-141.4 159.9,-143.1 155.8,-143.9 153.3,-145.9 
		147.7,-145.9 147.9,-147 146.9,-147.9 143.1,-148.1 141,-146.3 141,-145.3 139.2,-141.4 139.2,-142.4 138.1,-142.9 138.1,-144.3 
		137.6,-144.7 138.4,-145.6 138,-146 136.4,-146 136.4,-146.9 138.4,-148.4 140.7,-148.9 140.2,-149.5 140.2,-150.3 138.9,-150.3 
		138.9,-151.5 137.3,-151.5 136.3,-151 133.5,-151 132.6,-150.6 132,-150 131.9,-148.9 132.4,-147.2 130.5,-145.7 129.8,-144 
		129.8,-143.2 129,-143.2 128.6,-142.9 128,-143.2 126.1,-141.9 125.3,-141.9 125.4,-145.4 126,-146 126.1,-149.7 125.6,-149 
		124.7,-149 123.5,-147.8 122.6,-147.9 116.7,-142.1 116.1,-138.9 115.5,-138.3 113.8,-138.2 113.3,-138.7 113.1,-139.8 
		113.8,-140.5 113.8,-142.2 114.4,-142.8 113.9,-143.5 115.2,-143.9 118.1,-147 118.8,-147 119.8,-149.5 122.5,-149.4 119.9,-152 
		117.8,-152 117.1,-150.6 118,-149.7 116.4,-149.2 115.8,-148.6 114.8,-148.6 113.6,-149.3 113.6,-150 112.4,-150 109.9,-148.9 
		109.9,-148.1 109,-146.8 109.9,-146.8 109.9,-145.3 107,-145.3 107.2,-142.9 103.2,-142.7 102.5,-142 102,-140.3 99,-138.7 
		99,-137.8 99.9,-136.9 98.1,-136.3 96.3,-137.7 96.3,-139 95.7,-139.6 95.7,-141.2 93.7,-140.2 93,-139.5 91.7,-138.8 89.6,-139.7 
		88.5,-139.2 86.7,-139.9 84.1,-139.9 84.1,-139.1 85.9,-138.4 87.4,-136.9 88.8,-136.7 88.8,-135.8 87.8,-134.4 87.8,-135.1 
		85.9,-134.9 84.6,-136.2 83.1,-135.6 82.9,-133.6 81.4,-133.6 80.6,-134.4 78.1,-131.5 79,-130 78.1,-130 73,-126.7 74.4,-128.2 
		74.4,-128.8 75.7,-130 75.7,-130.9 76.3,-131.6 76.3,-134.6 72.2,-132.3 71.6,-131.3 72.2,-130.6 70.7,-128.6 69.5,-128.2 
		69.9,-128.6 70.6,-132.2 66.6,-132.2 65.9,-131.5 65.3,-130 65.3,-128.7 67.1,-126.8 65.8,-126.8 64.2,-128.4 63.5,-129.8 
		63.5,-132.4 61.4,-132.4 60.2,-131.2 60.2,-130 61.7,-128.7 61.6,-127.9 63.1,-126.3 61.6,-126.3 61.1,-125.6 58,-128.7 
		56.5,-128.7 56.5,-129.6 57.3,-130.8 54.2,-129.6 53.2,-128.6 52,-128.6 50.6,-127.2 48.7,-126.4 50.3,-124.8 49.3,-123.9 
		50.2,-122.8 52.3,-122.8 53.7,-124.3 55.4,-123.5 53.9,-122.1 53.7,-120.4 54.4,-119.7 54.8,-118.7 53.7,-117.7 51.2,-118.8 
		50,-117.7 47.9,-116.6 47,-115.7 47.5,-114.6 51,-113.9 51.6,-114.5 54.1,-114.5 52.5,-112.9 52,-112.9 51.4,-112.4 51.4,-111.8 
		50.2,-112.8 48.4,-112.8 45.5,-113.8 45.5,-112.3 46.4,-111.4 44.3,-108.6 44.4,-107.1 43,-106.9 42.3,-107.7 42.3,-110.3 
		40.7,-110.3 38.9,-108.5 40.4,-106.9 39.3,-106.3 37.6,-106.3 35.8,-107.1 34.6,-106.7 34.2,-106.3 33.6,-105.2 32.2,-103.8 
		34.7,-103.7 35.7,-104.6 38.2,-104.2 39,-103.4 38.5,-102.8 36.5,-102.8 36,-102.3 37.3,-100.9 38.5,-100.9 39,-99.8 35.7,-100 
		33.7,-101 33.1,-100.3 29.5,-99.1 31.7,-97.8 39.8,-97.6 36.2,-96 35.4,-96 33.8,-97 30.5,-96.8 28.5,-94.8 26.4,-94.5 23.1,-91.7 
		23.5,-91.3 21.1,-89.1 21.6,-87.9 20.4,-86.7 19,-86.7 18.8,-85.7 20,-84.6 24.9,-84.9 22.9,-83.2 18.1,-82.8 18.8,-79.2 
		18.3,-79.6 16.8,-79.6 15.3,-79 15.3,-78.3 14.5,-77.4 13.6,-77.2 13,-76.6 13.4,-75.2 14.3,-75.2 14.8,-73.5 14,-73.5 12.8,-74 
		12.2,-74 10.7,-72.6 11.7,-71.5 13.2,-71.5 13.2,-70.6 14.2,-70.6 16.2,-71.2 13.8,-68.5 7.6,-68.3 7.6,-66.5 8.2,-65.8 6.7,-65.3 
		5.8,-64.4 5.8,-63.5 7.2,-62.3 6.1,-61.2 5.8,-60.1 4.3,-60.1 3.2,-61.2 0.4,-61.2 0,-60.1 -1.3,-59.9 -1.7,-58.8 -2.8,-57.7 
		-3.9,-57.7 -5,-56.6 -4.6,-55.5 -4.6,-54.5 -5.6,-54.5 -7.6,-52.5 -6.8,-51.7 -7.4,-51.1 -6.8,-49.4 -5.8,-49.3 -5.2,-49.9 
		-4,-49.9 -3.1,-50.8 -2.4,-50.8 -0.9,-51.3 -0.1,-51.3 1,-52.4 -0.4,-53.9 1.2,-53.9 3.7,-55.8 5.4,-55.8 5.2,-54.7 3.6,-54.3 
		2.6,-53 3.6,-52.1 3.6,-51.4 1.4,-51.4 0.1,-50.1 0.3,-49.4 0.9,-48.7 0.5,-47.9 -4.8,-48.2 -5,-47.1 -5.6,-46.5 -7.3,-46.3 
		-7.3,-48.1 -8.7,-49.4 -9.7,-49.9 -13.5,-46.1 -13.5,-47.9 -13.9,-47.5 -16.1,-47.5 -17.2,-45.7 -17.2,-44.3 -18.2,-44.3 
		-18.7,-43.3 -16.3,-40.8 -18.5,-41.6 -19.7,-41.6 -20.5,-42.5 -21.5,-42.5 -18.9,-39.9 -18.9,-38.6 -20.8,-40.6 -22,-40.6 
		-23.2,-41.7 -23.2,-42.8 -24.3,-42.8 -25.1,-42.1 -29.6,-42.1 -29.8,-41.1 -28.7,-39.9 -27,-39.9 -24.8,-38.9 -26.3,-37.4 
		-28.8,-37.4 -30.8,-38.1 -34.2,-37.5 -32.3,-36.2 -30.9,-36.2 -28.2,-33 -29,-32.3 -29,-33.5 -34.2,-36 -33.5,-35.2 -34.6,-35.2 
		-34.6,-33.1 -35.3,-33.8 -37.1,-34 -38.1,-33.1 -36.3,-31.3 -40.9,-31.4 -42.4,-30 -39.4,-28.5 -38.7,-27.9 -45.3,-27.2 -45.3,-26 
			"/>
	<polygon fill="url(#Grid_1_pica_Lines)" points="181.3,-80.7 181.3,-90.3 181.1,-90.2 	"/>
	<path fill="url(#Grid_1_pica_Lines)" d="M181.3-90.3l0.5-0.5L181.3-90.3z"/>
	<polygon fill="url(#Grid_1_pica_Lines)" points="269.4,78 270.1,77.4 269.1,78 	"/>
	<polygon fill="url(#Grid_1_pica_Lines)" points="257.1,-97.6 256.7,-97.2 256.8,-96 257.9,-94.7 258,-94.1 257.7,-93.2 
		256.4,-92.7 249.4,-93.7 249.1,-93.2 249.1,-92.5 249.7,-92.4 251.3,-91 252.5,-91.9 253.1,-92 254.1,-91.6 258.2,-91.6 259,-91.9 
		259.7,-91.9 260.3,-91.3 260.7,-91.3 262.7,-89.5 263,-89.4 264.1,-90.9 264.3,-91.7 265,-92.5 267.4,-91.6 268,-91.6 269.6,-92.6 
		273.2,-92.5 274.1,-92.2 275.3,-92.2 276.7,-93.3 276.7,-93.6 276.4,-94.3 274.6,-95.8 273.8,-95.8 272,-96.5 272,-96.8 
		270.5,-97.1 269.8,-97.8 269.8,-98.4 269.4,-98.7 263.1,-100.1 262,-99.9 261.2,-99.1 258.9,-99.1 257.6,-100.3 256,-100.7 
		255.5,-100.1 254.5,-99.9 254.2,-99.5 254.2,-98.5 255.4,-98.5 	"/>
	<polygon fill="url(#Grid_1_pica_Lines)" points="203.4,-109.9 203.4,-109.1 205.6,-110.6 209.1,-111.5 211.8,-113.3 216.1,-112.8 
		215.8,-112 214.7,-111.2 218.1,-110.8 218.4,-110.4 219.3,-110.1 221,-110.4 221.9,-110.1 224.3,-108.1 227.8,-107.4 229.2,-107.6 
		229.8,-107.1 230,-106.3 230,-105.1 231.8,-103.4 234.9,-103.5 236.5,-102.9 237,-102.3 236.5,-101.5 235.2,-101 234.2,-100 
		234.8,-99.4 236.9,-99.7 237.7,-100.2 245.2,-99.5 245.8,-99.7 246.9,-100.8 249.5,-100.8 250.1,-101.5 249.5,-102.1 248.5,-102.3 
		247.8,-103.2 245.3,-104 243.6,-104 242.8,-104.8 242.8,-105.4 240,-106 238.9,-107.2 237.4,-107.7 236.1,-108.7 235.8,-108.8 
		235.5,-109 232.2,-109.9 231.6,-110.4 227.4,-111.9 226.3,-111.9 224.2,-114.2 221.7,-114.6 220.6,-115.2 217.7,-115.6 
		216.5,-115.2 214.1,-115.7 204.3,-112.6 203.1,-111.1 203.7,-110.4 	"/>
</g>
</svg>
